<svg width="16" height="16" viewBox="0 0 16 16" fill="none" xmlns="http://www.w3.org/2000/svg">
<path d="M12.6667 4.66602H3.33333C2.59695 4.66602 2 5.26297 2 5.99935V11.9993C2 12.7357 2.59695 13.3327 3.33333 13.3327H12.6667C13.403 13.3327 14 12.7357 14 11.9993V5.99935C14 5.26297 13.403 4.66602 12.6667 4.66602Z" stroke="#43B7B1" stroke-width="1.2" stroke-linecap="round" stroke-linejoin="round"/>
<path d="M5.33334 4.66667V3.33333C5.33334 2.97971 5.47382 2.64057 5.72387 2.39052C5.97392 2.14048 6.31305 2 6.66668 2H9.33334C9.68697 2 10.0261 2.14048 10.2762 2.39052C10.5262 2.64057 10.6667 2.97971 10.6667 3.33333V4.66667" stroke="#43B7B1" stroke-width="1.2" stroke-linecap="round" stroke-linejoin="round"/>
<path d="M8 8V8.00833" stroke="#43B7B1" stroke-width="1.2" stroke-linecap="round" stroke-linejoin="round"/>
<path d="M2 8.66602C3.86105 9.60381 5.91602 10.0923 8 10.0923C10.084 10.0923 12.1389 9.60381 14 8.66602" stroke="#43B7B1" stroke-width="1.2" stroke-linecap="round" stroke-linejoin="round"/>
</svg>
