<svg width="24" height="24" viewBox="0 0 24 24" fill="none" xmlns="http://www.w3.org/2000/svg">
<path d="M11.0785 16.8477H3.70816" stroke="#43B7B1" stroke-width="2" stroke-linecap="round" stroke-linejoin="round"/>
<path fill-rule="evenodd" clip-rule="evenodd" d="M20.4 16.8486C20.4 18.314 19.2121 19.5019 17.7467 19.5019C16.2813 19.5019 15.0934 18.314 15.0934 16.8486C15.0934 15.3821 16.2813 14.1953 17.7467 14.1953C19.2121 14.1953 20.4 15.3821 20.4 16.8486Z" stroke="#43B7B1" stroke-width="2" stroke-linecap="round" stroke-linejoin="round"/>
<path d="M12.9211 7.1543H20.2914" stroke="#43B7B1" stroke-width="2" stroke-linecap="round" stroke-linejoin="round"/>
<path fill-rule="evenodd" clip-rule="evenodd" d="M3.60001 7.15331C3.60001 8.61979 4.78793 9.80663 6.25332 9.80663C7.71871 9.80663 8.90663 8.61979 8.90663 7.15331C8.90663 5.68792 7.71871 4.5 6.25332 4.5C4.78793 4.5 3.60001 5.68792 3.60001 7.15331Z" stroke="#43B7B1" stroke-width="2" stroke-linecap="round" stroke-linejoin="round"/>
</svg>
