<svg width="124" height="106" viewBox="0 0 124 106" fill="none" xmlns="http://www.w3.org/2000/svg">
<path d="M68.9107 104.074C96.3573 104.074 118.609 81.7233 118.609 54.0556C118.609 26.3879 96.2593 4.03711 68.9107 4.03711C41.464 4.03711 19.2126 26.3879 19.2126 54.0556C19.2126 81.7233 41.464 104.074 68.9107 104.074Z" fill="#F1F9F6" stroke="#D6E8E1" stroke-width="2" stroke-miterlimit="10"/>
<path d="M115.374 21.2692C117.594 21.2692 119.393 19.4618 119.393 17.2322C119.393 15.0027 117.594 13.1953 115.374 13.1953C113.154 13.1953 111.355 15.0027 111.355 17.2322C111.355 19.4618 113.154 21.2692 115.374 21.2692Z" fill="#F1F9F6"/>
<path d="M121.255 5.51385C122.771 5.51385 124 4.27953 124 2.75693C124 1.23432 122.771 0 121.255 0C119.739 0 118.51 1.23432 118.51 2.75693C118.51 4.27953 119.739 5.51385 121.255 5.51385Z" fill="#F1F9F6"/>
<path d="M21.8592 21.1701C23.375 21.1701 24.6038 19.9358 24.6038 18.4132C24.6038 16.8906 23.375 15.6562 21.8592 15.6562C20.3433 15.6562 19.1145 16.8906 19.1145 18.4132C19.1145 19.9358 20.3433 21.1701 21.8592 21.1701Z" fill="#F1F9F6"/>
<path d="M5.09723 74.3377C7.91236 74.3377 10.1945 72.0454 10.1945 69.2177C10.1945 66.39 7.91236 64.0977 5.09723 64.0977C2.28211 64.0977 0 66.39 0 69.2177C0 72.0454 2.28211 74.3377 5.09723 74.3377Z" fill="#F1F9F6"/>
<path d="M83.3203 27.4723L98.3179 81.6262C98.808 83.4969 97.7298 85.3677 95.8673 85.86L43.0325 99.94C41.1701 100.432 39.3076 99.3492 38.8175 97.4785L20.389 27.5707C19.8989 25.6999 20.9772 23.8292 22.8396 23.3369L61.0689 13.1953L83.3203 27.4723Z" fill="white" stroke="#D6E8E1" stroke-width="2" stroke-miterlimit="10"/>
<path d="M82.5362 61.7376L54.0113 69.3192L50.8745 70.1069L41.3662 72.6669C40.9741 72.7653 40.6801 73.2576 40.8761 73.7499C40.9741 74.2422 41.4643 74.5376 41.8564 74.4392L51.3647 71.8792L54.5014 71.0915L83.0263 63.5099C83.4184 63.4115 83.7125 62.9192 83.5164 62.4268C83.4184 61.9345 82.9283 61.6392 82.5362 61.7376Z" fill="#D6E8E1"/>
<path d="M80.6736 55.0407L70.0871 57.7976L66.4602 58.7822L39.6997 65.9699C39.3076 66.0684 39.0136 66.5607 39.2096 67.053C39.3076 67.5453 39.7978 67.8407 40.1899 67.7422L67.0483 60.5545L70.6752 59.5699L81.2618 56.813C81.6539 56.7145 81.948 56.2222 81.7519 55.7299C81.5559 55.3361 81.0657 54.9422 80.6736 55.0407Z" fill="#D6E8E1"/>
<path d="M79.1052 48.2476L76.3605 48.9368L73.6158 49.6261L37.8372 59.1768C37.4451 59.2753 37.151 59.7676 37.3471 60.2599C37.4451 60.7522 37.9352 61.0476 38.3273 60.9492L74.106 51.3984L77.1447 50.6107L79.5953 49.9214C79.9874 49.823 80.2814 49.3307 80.0854 48.8384C79.9874 48.4445 79.5953 48.1491 79.1052 48.2476Z" fill="#D6E8E1"/>
<path d="M62.5392 83.1037L60.5787 83.596C60.1866 83.6944 59.6965 83.3991 59.5985 82.9067C59.5004 82.4144 59.6965 81.9221 60.0886 81.8237L62.0491 81.3314C62.4412 81.2329 62.9313 81.5283 63.0293 82.0206C63.1273 82.6114 62.9313 83.0052 62.5392 83.1037Z" fill="#D6E8E1"/>
<path d="M56.5597 84.6779L45.287 87.6317C44.8949 87.7302 44.4047 87.4348 44.3067 86.9425C44.2087 86.4502 44.4047 85.9579 44.7968 85.8594L56.0696 82.9056C56.4617 82.8071 56.9518 83.1025 57.0498 83.5948C57.2458 84.0871 57.0498 84.5794 56.5597 84.6779Z" fill="#D6E8E1"/>
<path d="M77.733 41.4528L68.8128 43.8159L66.6563 44.4067L36.1709 52.4805C35.7788 52.579 35.4848 53.0713 35.6808 53.5636C35.7788 54.0559 36.269 54.3513 36.661 54.2528L67.0484 46.2774L69.2049 45.6867L78.027 43.3236C78.5172 43.2251 78.7132 42.7328 78.6152 42.142C78.6152 41.7482 78.1251 41.3543 77.733 41.4528Z" fill="#D6E8E1"/>
<path d="M56.6578 26.5846L31.3677 33.28C30.7795 33.4769 30.1914 33.083 29.9953 32.4923C29.7993 31.9015 30.1914 31.3107 30.7795 31.1138L56.0696 24.4184C56.6578 24.2215 57.2459 24.6153 57.442 25.2061C57.638 25.7969 57.2459 26.3876 56.6578 26.5846Z" fill="#D6E8E1"/>
<path d="M42.7385 36.8268L33.0342 39.3868C32.446 39.5837 31.8579 39.1898 31.6618 38.5991C31.4658 38.0083 31.8579 37.4175 32.446 37.2206L42.0524 34.6606C42.6405 34.4637 43.2286 34.8575 43.4247 35.4483C43.6207 36.0391 43.2286 36.6298 42.7385 36.8268Z" fill="#D6E8E1"/>
<path d="M61.0688 13.1953L64.9898 28.1615C65.5779 30.2292 67.8325 31.5092 69.891 30.9184L83.3202 27.4722" fill="#D6E8E1"/>
<path d="M122.922 42.7316L113.904 98.264C113.609 100.135 111.747 101.415 109.885 101.021L56.1676 91.5686C54.3051 91.2732 53.0308 89.4025 53.3249 87.5317L65.7739 16.3439C66.068 14.4732 67.9304 13.1932 69.7929 13.587L108.806 20.4793L122.922 42.7316Z" fill="white" stroke="#D6E8E1" stroke-width="2" stroke-miterlimit="10"/>
<path d="M107.924 73.5502L78.9088 68.4302L75.7721 67.8394L66.0677 66.1656C65.6756 66.0671 65.1855 66.461 65.1855 66.9533C65.0875 67.4456 65.3815 67.9379 65.7736 68.0364L75.478 69.7102L78.6147 70.301L107.63 75.421C108.022 75.5194 108.512 75.1256 108.512 74.6333C108.61 74.141 108.414 73.6487 107.924 73.5502Z" fill="#D6E8E1"/>
<path d="M109.1 66.7572L98.3176 64.8865L94.6907 64.1972L67.3421 59.3726C66.95 59.2741 66.4599 59.668 66.4599 60.1603C66.3619 60.6526 66.656 61.1449 67.0481 61.2434L94.3967 66.068L98.0235 66.7572L108.806 68.628C109.198 68.7265 109.688 68.3326 109.688 67.8403C109.786 67.348 109.492 66.8557 109.1 66.7572Z" fill="#D6E8E1"/>
<path d="M110.473 59.8647L107.63 59.3723L104.787 58.88L68.3223 52.48C67.9303 52.3816 67.4401 52.7754 67.4401 53.2677C67.3421 53.76 67.6362 54.2523 68.0283 54.3508L104.493 60.7508L107.63 61.3416L110.08 61.7354C110.473 61.8339 110.963 61.44 110.963 60.9477C111.159 60.4554 110.963 59.9631 110.473 59.8647Z" fill="#D6E8E1"/>
<path d="M80.8696 84.5778L78.9091 84.2824C78.517 84.184 78.223 83.6917 78.321 83.1994C78.419 82.7071 78.8111 82.3132 79.2032 82.4117L81.1637 82.7071C81.5558 82.8055 81.8499 83.2978 81.7518 83.7901C81.6538 84.3809 81.2617 84.5778 80.8696 84.5778Z" fill="#D6E8E1"/>
<path d="M74.8901 83.4958L63.4213 81.5266C63.0293 81.4281 62.7352 80.9358 62.8332 80.4435C62.9312 79.9512 63.3233 79.5574 63.7154 79.6558L75.1842 81.625C75.5763 81.7235 75.8704 82.2158 75.7723 82.7081C75.6743 83.2989 75.2822 83.5943 74.8901 83.4958Z" fill="#D6E8E1"/>
<path d="M112.041 53.1682L102.925 51.5928L100.67 51.199L69.5968 45.6851C69.2047 45.5866 68.7146 45.9805 68.7146 46.4728C68.6165 46.9651 68.9106 47.4574 69.3027 47.5559L100.376 53.0697L102.631 53.4636L111.649 55.039C112.139 55.1374 112.531 54.7436 112.629 54.2513C112.727 53.759 112.433 53.2667 112.041 53.1682Z" fill="#D6E8E1"/>
<path d="M99.1999 30.8179L73.4197 26.2887C72.8315 26.1902 72.4394 25.5994 72.5375 25.0087C72.6355 24.4179 73.2236 24.024 73.8118 24.1225L99.592 28.6517C100.18 28.7502 100.572 29.341 100.474 29.9317C100.376 30.424 99.7881 30.9164 99.1999 30.8179Z" fill="#D6E8E1"/>
<path d="M82.242 34.1664L72.3416 32.3941C71.7534 32.2957 71.3613 31.7049 71.4593 31.1141C71.5574 30.5234 72.1455 30.1295 72.7337 30.228L82.536 32.0003C83.1242 32.0987 83.5163 32.6895 83.4182 33.2803C83.3202 33.871 82.7321 34.2649 82.242 34.1664Z" fill="#D6E8E1"/>
<path d="M108.708 20.4805L106.061 35.742C105.669 37.9082 107.238 39.9759 109.394 40.3697L122.922 42.7328" fill="#D6E8E1"/>
<path d="M85.9667 93.0467C98.0392 93.0467 107.826 83.2162 107.826 71.0898C107.826 58.9633 98.0392 49.1328 85.9667 49.1328C73.8942 49.1328 64.1074 58.9633 64.1074 71.0898C64.1074 83.2162 73.8942 93.0467 85.9667 93.0467Z" fill="white"/>
<path d="M117.668 105C116.82 105 115.971 104.659 115.293 103.892L101.123 89.6588L100.614 89.9997C96.032 93.4088 90.6866 95.1986 85.2563 95.1986C78.723 95.1986 72.1897 92.5566 67.3533 87.9543C62.2624 83.0963 59.4624 76.5338 59.4624 69.3747C59.4624 55.1417 71.0018 43.5508 85.1715 43.5508C94.8442 43.5508 103.329 48.6644 107.911 57.3576C112.408 65.9656 111.814 76.0224 106.299 84.119L105.959 84.6304L120.214 98.9486C121.656 100.397 121.317 101.846 121.062 102.613C120.384 103.977 119.026 105 117.668 105ZM85.1715 50.6247C74.82 50.6247 66.5048 59.0622 66.5048 69.3747C66.5048 81.1361 76.0927 88.21 85.426 88.21C91.1108 88.21 96.2866 85.6531 99.9351 81.0509C104.432 75.4258 105.196 67.8406 102.056 61.2781C98.832 54.7156 92.3836 50.6247 85.1715 50.6247Z" fill="#D6E8E1" stroke="#AAC5BB" stroke-width="2" stroke-miterlimit="10"/>
<path d="M83.9083 74.6351C83.8102 74.2412 83.8102 73.8474 83.8102 73.3551C83.8102 71.6812 84.4964 70.2043 86.2608 68.9243L87.7312 67.8412C88.6134 67.152 89.0055 66.3643 89.0055 65.3797C89.0055 64.0012 88.0253 62.6227 85.9668 62.6227C83.8102 62.6227 82.83 64.3951 82.83 66.0689C82.83 66.4627 82.83 66.7581 82.928 67.0535L79.0071 66.9551C78.9091 66.5612 78.811 66.0689 78.811 65.5766C78.811 62.2289 81.2616 59.0781 85.8687 59.0781C90.5739 59.0781 93.1225 62.1304 93.1225 65.1827C93.1225 67.6443 91.8482 69.3181 90.0838 70.5981L88.8094 71.4843C87.7312 72.272 87.143 73.2566 87.143 74.4381V74.6351H83.9083ZM85.5747 76.6043C86.947 76.6043 88.0253 77.6874 88.0253 79.0658C88.0253 80.4443 86.947 81.5274 85.5747 81.5274C84.2023 81.5274 83.1241 80.4443 83.1241 79.0658C83.2221 77.7858 84.2023 76.6043 85.5747 76.6043Z" fill="#B2D1C6"/>
</svg>
