<svg width="125" height="124" viewBox="0 0 125 124" fill="none" xmlns="http://www.w3.org/2000/svg">
<path d="M58 116C85.8895 116 108.5 93.4341 108.5 65.5C108.5 37.5659 85.8895 15 58 15C30.1105 15 7.5 37.5659 7.5 65.5C7.5 93.4341 30.1105 116 58 116Z" fill="#F1F9F7" stroke="#D6E8E3" stroke-width="2" stroke-miterlimit="10"/>
<path d="M114.9 44.9002C117.164 44.9002 119 43.0646 119 40.8002C119 38.5358 117.164 36.7002 114.9 36.7002C112.636 36.7002 110.8 38.5358 110.8 40.8002C110.8 43.0646 112.636 44.9002 114.9 44.9002Z" fill="#F1F9F7"/>
<path d="M120.9 28.8002C122.446 28.8002 123.7 27.5466 123.7 26.0002C123.7 24.4538 122.446 23.2002 120.9 23.2002C119.354 23.2002 118.1 24.4538 118.1 26.0002C118.1 27.5466 119.354 28.8002 120.9 28.8002Z" fill="#F1F9F7"/>
<path d="M4.3 47.8002C5.8464 47.8002 7.1 46.5466 7.1 45.0002C7.1 43.4538 5.8464 42.2002 4.3 42.2002C2.7536 42.2002 1.5 43.4538 1.5 45.0002C1.5 46.5466 2.7536 47.8002 4.3 47.8002Z" fill="#F1F9F7"/>
<path d="M9.50005 108.7C12.3719 108.7 14.7 106.372 14.7 103.5C14.7 100.628 12.3719 98.2998 9.50005 98.2998C6.62817 98.2998 4.30005 100.628 4.30005 103.5C4.30005 106.372 6.62817 108.7 9.50005 108.7Z" fill="#F1F9F7"/>
<path d="M62.4025 20.3115H54.0122V25.7722H62.4025V20.3115Z" fill="#F1F9F7" stroke="#D6E8E3" stroke-width="2" stroke-miterlimit="10"/>
<path d="M30.5995 31.1895L26.0464 35.7402L29.3577 39.0499L33.9108 34.4991L30.5995 31.1895Z" fill="#F1F9F7" stroke="#D6E8E3" stroke-width="2" stroke-miterlimit="10"/>
<path d="M83.8422 34.1631L88.3953 38.7139L91.3616 35.749L86.8086 31.1982L83.8422 34.1631Z" fill="#F1F9F7" stroke="#D6E8E3" stroke-width="2" stroke-miterlimit="10"/>
<path d="M57.8902 105.74C80.1972 105.74 98.2805 87.666 98.2805 65.3701C98.2805 43.0743 80.1972 25 57.8902 25C35.5833 25 17.5 43.0743 17.5 65.3701C17.5 87.666 35.5833 105.74 57.8902 105.74Z" fill="white" stroke="#D6E8E3" stroke-width="2" stroke-miterlimit="10"/>
<path d="M89.5244 65.4965C89.5244 65.8866 89.5244 66.1791 89.5244 66.5692C88.939 83.4388 75.0854 96.993 58.0122 96.993C40.939 96.993 27.0854 83.4388 26.5 66.5692C26.5 66.1791 26.5 65.8866 26.5 65.4965C26.5 48.5294 39.9634 34.5851 56.8415 34C57.2317 34 57.622 34 58.0122 34C75.2805 34 89.2317 47.8468 89.5244 64.9114C89.5244 65.1065 89.5244 65.3015 89.5244 65.4965Z" fill="white" stroke="#D6E8E3" stroke-width="2" stroke-miterlimit="10"/>
<path opacity="0.3" d="M67.2804 85.2546H49.2316C48.3536 85.2546 47.6707 84.572 47.6707 83.6944V74.7233C47.6707 73.8457 48.3536 73.1631 49.2316 73.1631H67.2804C68.1585 73.1631 68.8414 73.8457 68.8414 74.7233V83.6944C68.8414 84.572 68.1585 85.2546 67.2804 85.2546Z" fill="#C9E1DA"/>
<path d="M86.2073 66.7278H81.0366C80.1585 66.7278 79.4756 66.0452 79.4756 65.1676C79.4756 64.29 80.1585 63.6074 81.0366 63.6074H86.2073C87.0853 63.6074 87.7683 64.29 87.7683 65.1676C87.7683 66.0452 86.9878 66.7278 86.2073 66.7278Z" fill="#D6E8E3"/>
<path d="M35.1829 66.7278H30.0121C29.1341 66.7278 28.4512 66.0452 28.4512 65.1676C28.4512 64.29 29.1341 63.6074 30.0121 63.6074H35.1829C36.0609 63.6074 36.7439 64.29 36.7439 65.1676C36.7439 66.0452 35.9634 66.7278 35.1829 66.7278Z" fill="#D6E8E3"/>
<path d="M58.1098 94.9087C57.2318 94.9087 56.5488 94.2261 56.5488 93.3485V88.1803C56.5488 87.3027 57.2318 86.6201 58.1098 86.6201C58.9879 86.6201 59.6708 87.3027 59.6708 88.1803V93.3485C59.5732 94.2261 58.8903 94.9087 58.1098 94.9087Z" fill="#D6E8E3"/>
<path d="M58.1098 43.9098C57.2318 43.9098 56.5488 43.2272 56.5488 42.3496V37.2789C56.5488 36.4013 57.2318 35.7188 58.1098 35.7188C58.9879 35.7188 59.6708 36.4013 59.6708 37.2789V42.4471C59.5732 43.2272 58.8903 43.9098 58.1098 43.9098Z" fill="#D6E8E3"/>
<path d="M58.5002 69.4576C61.1404 69.4576 63.2807 67.3184 63.2807 64.6795C63.2807 62.0406 61.1404 59.9014 58.5002 59.9014C55.86 59.9014 53.7197 62.0406 53.7197 64.6795C53.7197 67.3184 55.86 69.4576 58.5002 69.4576Z" fill="#F2FCF9"/>
<path opacity="0.3" d="M78.7926 45.7622C78.2072 45.2746 77.3292 45.2746 76.8414 45.7622L59.9633 63.5094C59.8658 63.5094 59.8658 63.5094 59.7682 63.5094C58.4999 63.5094 57.5243 64.4845 57.5243 65.7522C57.5243 65.8497 57.5243 65.9472 57.5243 66.0447L54.7926 68.8726C54.3048 69.4577 54.3048 70.3353 54.7926 70.8229C55.0853 71.1154 55.378 71.2129 55.7682 71.2129C56.1585 71.2129 56.5487 71.1154 56.7438 70.8229L59.4755 67.995C59.5731 67.995 59.6707 67.995 59.6707 67.995C60.939 67.995 61.9146 67.0199 61.9146 65.7522C61.9146 65.6547 61.9146 65.5572 61.9146 65.4597L78.7926 47.8099C79.378 47.1273 79.378 46.2497 78.7926 45.7622Z" fill="#DAEDE7"/>
<path d="M77.5243 44.6899C76.9389 44.2023 76.0609 44.2023 75.5731 44.6899L58.695 62.4372C58.5975 62.4372 58.5975 62.4372 58.4999 62.4372C57.2316 62.4372 56.256 63.4123 56.256 64.6799C56.256 64.7775 56.256 64.875 56.256 64.9725L53.5243 67.8003C53.0365 68.3854 53.0365 69.263 53.5243 69.7506C53.817 70.0431 54.1097 70.1406 54.4999 70.1406C54.8902 70.1406 55.2804 70.0431 55.4755 69.7506L58.2072 66.9227C58.3048 66.9227 58.4023 66.9227 58.4023 66.9227C59.6706 66.9227 60.6463 65.9476 60.6463 64.6799C60.6463 64.5824 60.6463 64.4849 60.6463 64.3874L77.5243 46.7377C78.1097 46.0551 78.0121 45.1775 77.5243 44.6899Z" fill="#AAC5BD"/>
<path d="M66.4025 12.608V17.8736C66.4025 19.9214 64.744 21.4816 62.7928 21.4816H53.8172C51.7684 21.4816 50.2074 19.8239 50.2074 17.8736V12.608C50.2074 10.5602 51.8659 9 53.8172 9H62.7928C64.8415 9 66.4025 10.6577 66.4025 12.608Z" fill="#AAC5BD"/>
<path d="M31.4758 31.6225L26.5978 36.4982C25.5246 37.5708 23.7685 37.5708 22.5978 36.4982L19.7685 33.6703C18.6953 32.5977 18.6953 30.8424 19.7685 29.6723L24.6465 24.7967C25.7197 23.724 27.4758 23.724 28.6465 24.7967L31.4758 27.6245C32.549 28.7947 32.549 30.5499 31.4758 31.6225Z" fill="#AAC5BD"/>
<path d="M85.9145 31.6225L90.7925 36.4982C91.8657 37.5708 93.6218 37.5708 94.7925 36.4982L97.6218 33.6703C98.695 32.5977 98.695 30.8424 97.6218 29.6723L92.7438 24.7967C91.6706 23.724 89.9145 23.724 88.7438 24.7967L85.9145 27.6245C84.8413 28.7947 84.8413 30.5499 85.9145 31.6225Z" fill="#AAC5BD"/>
<path d="M58.5001 65.0695C58.7156 65.0695 58.8904 64.8948 58.8904 64.6793C58.8904 64.4638 58.7156 64.2891 58.5001 64.2891C58.2846 64.2891 58.1099 64.4638 58.1099 64.6793C58.1099 64.8948 58.2846 65.0695 58.5001 65.0695Z" fill="white"/>
</svg>
