<svg width="125" height="124" viewBox="0 0 125 124" fill="none" xmlns="http://www.w3.org/2000/svg">
<path d="M109.099 64.09C109.099 77.5286 103.61 89.6423 94.8085 98.349C86.1964 106.961 74.272 112.166 61.1173 112.166C48.0572 112.166 36.1327 106.866 27.426 98.349C18.6246 89.6423 13.1356 77.5286 13.1356 64.09C13.1356 37.4966 34.6185 16.0137 61.1173 16.0137C87.616 16.0137 109.099 37.5912 109.099 64.09Z" fill="#FF4C4C" fill-opacity="0.1" stroke="#FF4C4C" stroke-opacity="0.6" stroke-width="2" stroke-miterlimit="10"/>
<path d="M104.935 32.5758C107.078 32.5758 108.815 30.8386 108.815 28.6956C108.815 26.5526 107.078 24.8154 104.935 24.8154C102.792 24.8154 101.055 26.5526 101.055 28.6956C101.055 30.8386 102.792 32.5758 104.935 32.5758Z" fill="#FF4C4C" fill-opacity="0.1"/>
<path d="M110.613 17.4335C112.076 17.4335 113.263 16.2471 113.263 14.7837C113.263 13.3202 112.076 12.1338 110.613 12.1338C109.15 12.1338 107.963 13.3202 107.963 14.7837C107.963 16.2471 109.15 17.4335 110.613 17.4335Z" fill="#FF4C4C" fill-opacity="0.1"/>
<path d="M14.6499 32.4804C16.1134 32.4804 17.2997 31.294 17.2997 29.8305C17.2997 28.3671 16.1134 27.1807 14.6499 27.1807C13.1864 27.1807 12 28.3671 12 29.8305C12 31.294 13.1864 32.4804 14.6499 32.4804Z" fill="#FF4C4C" fill-opacity="0.1"/>
<path d="M94.8085 38.916V98.3489C86.1964 106.961 74.272 112.166 61.1173 112.166C48.0572 112.166 36.1328 106.866 27.426 98.3489V38.916H94.8085Z" fill="white" stroke="#FF4C4C" stroke-opacity="0.6" stroke-width="2" stroke-miterlimit="10"/>
<path d="M70.5002 64.411L65.0887 58.9995L70.5002 53.5879C71.5825 52.5056 71.7028 50.7018 70.5002 49.4992C69.4179 48.4169 67.6141 48.2967 66.4115 49.4993L61 54.9108L55.5885 49.4993C54.5062 48.417 52.7023 48.2967 51.4998 49.4992C50.2972 50.7018 50.2972 52.3854 51.4998 53.5879L56.9113 58.9995L51.4998 64.411C50.4175 65.4933 50.2972 67.2971 51.4998 68.4997C52.5821 69.582 54.3859 69.7022 55.5885 68.4997L61 63.0882L66.4115 68.4997C67.4938 69.582 69.2977 69.7022 70.5002 68.4997C71.7028 67.2971 71.5825 65.4933 70.5002 64.411Z" fill="#FF4C4C" fill-opacity="0.1" stroke="#FF4C4C" stroke-opacity="0.6" stroke-width="2" stroke-miterlimit="10"/>
<path d="M78.3413 81.7871H43.8929V86.1405H78.3413V81.7871Z" fill="#FF4C4C" fill-opacity="0.6"/>
<path d="M78.3413 91.3457H43.8929V95.6991H78.3413V91.3457Z" fill="#FF4C4C" fill-opacity="0.6"/>
<path d="M69.9186 100.999H52.3159V105.352H69.9186V100.999Z" fill="#FF4C4C" fill-opacity="0.6"/>
</svg>
