<svg width="20" height="20" viewBox="0 0 20 20" fill="none" xmlns="http://www.w3.org/2000/svg">
<path d="M18.3333 5.4165H13.3333" stroke="#828F89" stroke-width="1.5" stroke-miterlimit="10" stroke-linecap="round" stroke-linejoin="round"/>
<path d="M4.99999 5.4165H1.66666" stroke="#828F89" stroke-width="1.5" stroke-miterlimit="10" stroke-linecap="round" stroke-linejoin="round"/>
<path d="M8.33332 8.33333C9.94415 8.33333 11.25 7.0275 11.25 5.41667C11.25 3.80584 9.94415 2.5 8.33332 2.5C6.72249 2.5 5.41666 3.80584 5.41666 5.41667C5.41666 7.0275 6.72249 8.33333 8.33332 8.33333Z" stroke="#828F89" stroke-width="1.5" stroke-miterlimit="10" stroke-linecap="round" stroke-linejoin="round"/>
<path d="M18.3333 14.5835H15" stroke="#828F89" stroke-width="1.5" stroke-miterlimit="10" stroke-linecap="round" stroke-linejoin="round"/>
<path d="M6.66666 14.5835H1.66666" stroke="#828F89" stroke-width="1.5" stroke-miterlimit="10" stroke-linecap="round" stroke-linejoin="round"/>
<path d="M11.6667 17.4998C13.2775 17.4998 14.5833 16.194 14.5833 14.5832C14.5833 12.9723 13.2775 11.6665 11.6667 11.6665C10.0558 11.6665 8.75 12.9723 8.75 14.5832C8.75 16.194 10.0558 17.4998 11.6667 17.4998Z" stroke="#828F89" stroke-width="1.5" stroke-miterlimit="10" stroke-linecap="round" stroke-linejoin="round"/>
</svg>
