<svg width="18" height="18" viewBox="0 0 18 18" fill="none" xmlns="http://www.w3.org/2000/svg">
<path fill-rule="evenodd" clip-rule="evenodd" d="M6.14438 8.01093V13.5865C6.14438 14.1122 5.71819 14.5384 5.19246 14.5384C4.66673 14.5384 4.24053 14.1122 4.24053 13.5865V8.01093H2.27488C1.78328 8.01093 1.38477 7.61242 1.38477 7.12082C1.38477 6.62923 1.78328 6.23071 2.27488 6.23071L8.11004 6.23071C8.60163 6.23071 9.00015 6.62923 9.00015 7.12082C9.00015 7.61242 8.60163 8.01093 8.11004 8.01093H6.14438Z" fill="#858D96"/>
<path opacity="0.5" fill-rule="evenodd" clip-rule="evenodd" d="M14.25 3C14.6642 3 15 3.33579 15 3.75V12.4394L15.9697 11.4697C16.2626 11.1768 16.7374 11.1768 17.0303 11.4697C17.3232 11.7626 17.3232 12.2375 17.0303 12.5304L14.7803 14.7804C14.6918 14.8689 14.5866 14.9307 14.4748 14.9657C14.4351 14.9782 14.394 14.9874 14.3517 14.9932C14.2842 15.0023 14.2158 15.0023 14.1483 14.9932C14.106 14.9874 14.0649 14.9782 14.0252 14.9657C13.9134 14.9307 13.8082 14.8689 13.7197 14.7804L11.4697 12.5304C11.1768 12.2375 11.1768 11.7626 11.4697 11.4697C11.7626 11.1768 12.2374 11.1768 12.5303 11.4697L13.5 12.4394V3.75C13.5 3.33579 13.8358 3 14.25 3Z" fill="#858D96"/>
</svg>
