<svg width="18" height="18" viewBox="0 0 18 18" fill="none" xmlns="http://www.w3.org/2000/svg">
<path fill-rule="evenodd" clip-rule="evenodd" d="M6.25 6.35714V14C6.25 14.5523 5.80228 15 5.25 15H4.75C4.19772 15 3.75 14.5523 3.75 14V6.35714H1C0.447715 6.35714 0 5.90943 0 5.35714V5C0 4.44772 0.447715 4 1 4L9 4C9.55228 4 10 4.44772 10 5V5.35714C10 5.90943 9.55228 6.35714 9 6.35714H6.25Z" fill="#858D96"/>
<path opacity="0.5" fill-rule="evenodd" clip-rule="evenodd" d="M13.5 5.56072V14.25C13.5 14.6642 13.8358 15 14.25 15C14.6642 15 15 14.6642 15 14.25V5.5607L15.9697 6.53038C16.2626 6.82327 16.7374 6.82327 17.0303 6.53038C17.3232 6.23749 17.3232 5.76261 17.0303 5.46972L14.7851 3.22448C14.7651 3.20412 14.7439 3.18489 14.7217 3.1669C14.68 3.13305 14.6355 3.10435 14.589 3.08081C14.4872 3.02913 14.372 3 14.25 3C14.1247 3 14.0067 3.0307 13.9029 3.08499C13.8633 3.10565 13.8252 3.13008 13.7891 3.15827C13.7627 3.17889 13.7377 3.20125 13.7142 3.22517L11.4697 5.46972C11.1768 5.76261 11.1768 6.23749 11.4697 6.53038C11.7626 6.82327 12.2374 6.82327 12.5303 6.53038L13.5 5.56072Z" fill="#858D96"/>
</svg>
