<svg width="24" height="24" viewBox="0 0 24 24" fill="none" xmlns="http://www.w3.org/2000/svg">
<path fill-rule="evenodd" clip-rule="evenodd" d="M16.6321 10.6328C17.359 10.6328 17.9482 11.2221 17.9482 11.949C17.9482 12.6759 17.359 13.2651 16.6321 13.2651C15.9052 13.2651 15.3159 12.6759 15.3159 11.949C15.3159 11.2221 15.9052 10.6328 16.6321 10.6328Z" fill="#8492A6"/>
<path fill-rule="evenodd" clip-rule="evenodd" d="M11.9998 10.6328C12.7266 10.6328 13.3159 11.2221 13.3159 11.949C13.3159 12.6759 12.7266 13.2651 11.9998 13.2651C11.2729 13.2651 10.6836 12.6759 10.6836 11.949C10.6836 11.2221 11.2729 10.6328 11.9998 10.6328Z" fill="#8492A6"/>
<path fill-rule="evenodd" clip-rule="evenodd" d="M7.36743 10.6328C8.09433 10.6328 8.68359 11.2221 8.68359 11.949C8.68359 12.6759 8.09433 13.2651 7.36743 13.2651C6.64053 13.2651 6.05126 12.6759 6.05126 11.949C6.05126 11.2221 6.64053 10.6328 7.36743 10.6328Z" fill="#8492A6"/>
<circle cx="12" cy="12" r="9" stroke="#8492A6" stroke-width="1.6" stroke-linecap="round" stroke-linejoin="round"/>
</svg>
