<svg width="20" height="20" viewBox="0 0 20 20" fill="none" xmlns="http://www.w3.org/2000/svg">
<path d="M15.8743 9.27701C15.9351 9.71464 16.3392 10.0201 16.7768 9.95928C17.2144 9.89846 17.5199 9.4944 17.4591 9.05678L15.8743 9.27701ZM3.01156 7.19258C2.84165 7.60043 3.03454 8.0688 3.44239 8.23871C3.85024 8.40862 4.31861 8.21573 4.48852 7.80788L3.01156 7.19258ZM4.13337 4.1669C4.13337 3.72507 3.7752 3.3669 3.33337 3.3669C2.89155 3.3669 2.53337 3.72507 2.53337 4.1669H4.13337ZM3.33337 7.50023H2.53337C2.53337 7.94206 2.89155 8.30023 3.33337 8.30023V7.50023ZM6.66671 8.30023C7.10854 8.30023 7.46671 7.94206 7.46671 7.50023C7.46671 7.0584 7.10854 6.70023 6.66671 6.70023V8.30023ZM17.4591 9.05678C16.9905 5.68494 14.3234 3.04374 10.9471 2.6081L10.7424 4.19494C13.4031 4.53827 15.505 6.61974 15.8743 9.27701L17.4591 9.05678ZM10.9471 2.6081C7.5709 2.17246 4.3207 4.05013 3.01156 7.19258L4.48852 7.80788C5.52023 5.33138 8.08164 3.85162 10.7424 4.19494L10.9471 2.6081ZM2.53337 4.1669V7.50023H4.13337V4.1669H2.53337ZM3.33337 8.30023H6.66671V6.70023H3.33337V8.30023Z" fill="white"/>
<path d="M4.12576 10.7229C4.06494 10.2853 3.66088 9.97981 3.22326 10.0406C2.78563 10.1014 2.48017 10.5055 2.54099 10.9431L4.12576 10.7229ZM16.9885 12.8073C17.1584 12.3995 16.9655 11.9311 16.5577 11.7612C16.1498 11.5913 15.6815 11.7842 15.5116 12.192L16.9885 12.8073ZM15.8667 15.833C15.8667 16.2748 16.2249 16.633 16.6667 16.633C17.1085 16.633 17.4667 16.2748 17.4667 15.833H15.8667ZM16.6667 12.4997H17.4667C17.4667 12.0578 17.1085 11.6997 16.6667 11.6997V12.4997ZM13.3334 11.6997C12.8915 11.6997 12.5334 12.0578 12.5334 12.4997C12.5334 12.9415 12.8915 13.2997 13.3334 13.2997V11.6997ZM2.54099 10.9431C3.00958 14.315 5.67669 16.9562 9.05294 17.3918L9.25769 15.805C6.59694 15.4616 4.49504 13.3802 4.12576 10.7229L2.54099 10.9431ZM9.05294 17.3918C12.4292 17.8274 15.6794 15.9498 16.9885 12.8073L15.5116 12.192C14.4799 14.6685 11.9184 16.1483 9.25769 15.805L9.05294 17.3918ZM17.4667 15.833V12.4997H15.8667V15.833H17.4667ZM16.6667 11.6997H13.3334V13.2997H16.6667V11.6997Z" fill="white"/>
</svg>
