<svg width="125" height="124" viewBox="0 0 125 124" fill="none" xmlns="http://www.w3.org/2000/svg">
<path d="M109.099 64.0895C109.099 77.5281 103.61 89.6418 94.8085 98.3485C86.1964 106.961 74.272 112.166 61.1173 112.166C48.0572 112.166 36.1327 106.866 27.426 98.3485C18.6246 89.6418 13.1356 77.5281 13.1356 64.0895C13.1356 37.4961 34.6185 16.0132 61.1173 16.0132C87.616 16.0132 109.099 37.5907 109.099 64.0895Z" fill="#F1F9F6" stroke="#D6E8E1" stroke-width="2" stroke-miterlimit="10"/>
<path d="M104.935 32.5748C107.078 32.5748 108.815 30.8376 108.815 28.6946C108.815 26.5517 107.078 24.8145 104.935 24.8145C102.792 24.8145 101.055 26.5517 101.055 28.6946C101.055 30.8376 102.792 32.5748 104.935 32.5748Z" fill="#F1F9F6"/>
<path d="M110.613 17.433C112.076 17.433 113.263 16.2467 113.263 14.7832C113.263 13.3197 112.076 12.1333 110.613 12.1333C109.15 12.1333 107.963 13.3197 107.963 14.7832C107.963 16.2467 109.15 17.433 110.613 17.433Z" fill="#F1F9F6"/>
<path d="M14.6499 32.4804C16.1134 32.4804 17.2997 31.294 17.2997 29.8305C17.2997 28.3671 16.1134 27.1807 14.6499 27.1807C13.1864 27.1807 12 28.3671 12 29.8305C12 31.294 13.1864 32.4804 14.6499 32.4804Z" fill="#F1F9F6"/>
<path d="M94.8085 38.9155V98.3484C86.1964 106.961 74.272 112.166 61.1173 112.166C48.0572 112.166 36.1328 106.866 27.426 98.3484V38.9155H94.8085Z" fill="white" stroke="#D6E8E1" stroke-width="2" stroke-miterlimit="10"/>
<path d="M57.2463 70.0353C56.6095 70.0353 56.0102 69.8012 55.5232 69.2942L47.2452 60.6742C46.3087 59.6991 46.3087 58.0609 47.2452 57.0858C48.1816 56.1107 49.7548 56.1107 50.6912 57.0858L57.2463 63.9116L72.6787 47.8807C73.6152 46.9056 75.1884 46.9056 76.1248 47.8807C77.0612 48.8559 77.0612 50.494 76.1248 51.4692L58.9693 69.2942C58.5198 69.8012 57.8831 70.0353 57.2463 70.0353Z" fill="#D6E8E1" stroke="#AAC5BB" stroke-width="2" stroke-miterlimit="10"/>
<path d="M78.3413 81.7866H43.8929V86.14H78.3413V81.7866Z" fill="#D6E8E1"/>
<path d="M78.3413 91.3457H43.8929V95.6991H78.3413V91.3457Z" fill="#D6E8E1"/>
<path d="M69.9186 100.999H52.3159V105.352H69.9186V100.999Z" fill="#D6E8E1"/>
</svg>
