<svg width="20" height="20" viewBox="0 0 20 20" fill="none" xmlns="http://www.w3.org/2000/svg">
<path d="M5.8335 10H17.5002" stroke="#8492A6" stroke-width="1.6" stroke-linecap="round" stroke-linejoin="round"/>
<path d="M5.8335 5L17.5002 5" stroke="#8492A6" stroke-width="1.6" stroke-linecap="round" stroke-linejoin="round"/>
<path fill-rule="evenodd" clip-rule="evenodd" d="M1.6665 5.00033C1.6665 4.54009 2.0396 4.16699 2.49984 4.16699C2.96007 4.16699 3.33317 4.54009 3.33317 5.00033C3.33317 5.46056 2.96007 5.83366 2.49984 5.83366C2.0396 5.83366 1.6665 5.46056 1.6665 5.00033Z" fill="#8492A6"/>
<path fill-rule="evenodd" clip-rule="evenodd" d="M1.6665 10.0003C1.6665 9.54009 2.0396 9.16699 2.49984 9.16699C2.96007 9.16699 3.33317 9.54009 3.33317 10.0003C3.33317 10.4606 2.96007 10.8337 2.49984 10.8337C2.0396 10.8337 1.6665 10.4606 1.6665 10.0003Z" fill="#8492A6"/>
<path fill-rule="evenodd" clip-rule="evenodd" d="M1.6665 15.0003C1.6665 14.5401 2.0396 14.167 2.49984 14.167C2.96007 14.167 3.33317 14.5401 3.33317 15.0003C3.33317 15.4606 2.96007 15.8337 2.49984 15.8337C2.0396 15.8337 1.6665 15.4606 1.6665 15.0003Z" fill="#8492A6"/>
<path d="M5.8335 15H17.5002" stroke="#8492A6" stroke-width="1.6" stroke-linecap="round" stroke-linejoin="round"/>
</svg>
