<svg width="21" height="20" viewBox="0 0 21 20" fill="none" xmlns="http://www.w3.org/2000/svg">
<circle cx="7.69826" cy="5.83333" r="3.33333" stroke="white" stroke-width="1.6" stroke-linecap="round" stroke-linejoin="round"/>
<path d="M2.69824 17.5V15.8333C2.69824 13.9924 4.19063 12.5 6.03158 12.5H9.36491C11.2059 12.5 12.6982 13.9924 12.6982 15.8333V17.5" stroke="white" stroke-width="1.6" stroke-linecap="round" stroke-linejoin="round"/>
<path d="M13.5316 8.3665C13.0897 8.3665 12.7316 8.72468 12.7316 9.1665C12.7316 9.60833 13.0897 9.9665 13.5316 9.9665V8.3665ZM18.5316 9.9665C18.9734 9.9665 19.3316 9.60833 19.3316 9.1665C19.3316 8.72468 18.9734 8.3665 18.5316 8.3665V9.9665ZM16.8316 6.6665C16.8316 6.22468 16.4734 5.8665 16.0316 5.8665C15.5897 5.8665 15.2316 6.22468 15.2316 6.6665H16.8316ZM15.2316 11.6665C15.2316 12.1083 15.5897 12.4665 16.0316 12.4665C16.4734 12.4665 16.8316 12.1083 16.8316 11.6665H15.2316ZM13.5316 9.9665H18.5316V8.3665H13.5316V9.9665ZM15.2316 6.6665V11.6665H16.8316V6.6665H15.2316Z" fill="white"/>
</svg>
