<svg width="74" height="26" viewBox="0 0 74 26" fill="none" xmlns="http://www.w3.org/2000/svg">
<path fill-rule="evenodd" clip-rule="evenodd" d="M20.2121 6.2003L20.8434 6.79999C20.8837 6.83827 20.9251 6.87751 20.9674 6.91766C21.5357 7.45652 22.2746 8.15714 22.8326 8.85191C23.5225 9.71085 24.3966 11.1032 24.3966 13C24.3966 14.8968 23.5225 16.2892 22.8326 17.1481C22.2746 17.8429 21.5357 18.5435 20.9674 19.0823C20.9251 19.1225 20.8837 19.1617 20.8434 19.2L20.2121 19.7997C20.1718 19.838 20.1305 19.8773 20.0883 19.9175C19.521 20.4573 18.7834 21.1592 18.052 21.6893C17.1478 22.3446 15.6821 23.1749 13.6853 23.1749C11.6885 23.1749 10.2228 22.3446 9.31856 21.6893C8.58717 21.1592 7.84962 20.4573 7.28234 19.9175C7.24008 19.8773 7.19877 19.838 7.15848 19.7997L6.52717 19.2C6.48687 19.1617 6.44549 19.1225 6.40315 19.0823C5.83486 18.5435 5.09599 17.8429 4.53796 17.1481C3.84807 16.2892 2.97404 14.8968 2.97404 13C2.97404 11.1032 3.84807 9.71085 4.53796 8.85191C5.09599 8.15714 5.83487 7.45652 6.40316 6.91766C6.44549 6.87751 6.48688 6.83827 6.52717 6.79999L7.15848 6.2003C7.19877 6.16202 7.24008 6.12271 7.28234 6.0825C7.84961 5.54266 8.58717 4.84079 9.31856 4.31069C10.2228 3.65535 11.6885 2.82509 13.6853 2.82509C15.6821 2.82509 17.1478 3.65535 18.052 4.31069C18.7834 4.84079 19.521 5.54266 20.0883 6.0825C20.1305 6.12271 20.1718 6.16202 20.2121 6.2003ZM13.6853 7.69627C12.8357 7.69627 12.1519 8.34576 10.7845 9.64475L10.1532 10.2444C8.78573 11.5434 8.102 12.1929 8.102 13C8.102 13.8071 8.78573 14.4566 10.1532 15.7556L10.7845 16.3553C12.1519 17.6542 12.8357 18.3037 13.6853 18.3037C14.5349 18.3037 15.2187 17.6542 16.5861 16.3553L17.2174 15.7556C18.5849 14.4566 19.2686 13.8071 19.2686 13C19.2686 12.1929 18.5849 11.5434 17.2174 10.2444L16.5861 9.64475C15.2187 8.34576 14.5349 7.69627 13.6853 7.69627Z" fill="#43B5D0"/>
<path d="M37.491 7.33203C38.174 7.33203 38.7782 7.42571 39.3035 7.61308C39.8394 7.80044 40.3438 8.08149 40.8166 8.45622L39.5872 9.83187C39.2615 9.5952 38.941 9.4177 38.6258 9.29936C38.3106 9.18103 37.9744 9.12186 37.6171 9.12186C36.8816 9.12186 36.2985 9.41277 35.8677 9.99459C35.4474 10.5764 35.2372 11.4738 35.2372 12.6867C35.2372 13.8799 35.4474 14.7675 35.8677 15.3493C36.2985 15.9212 36.8921 16.2072 37.6486 16.2072C38.0479 16.2072 38.4104 16.1382 38.7361 16.0001C39.0619 15.8522 39.4139 15.6451 39.7921 15.3789L40.9427 16.7693C40.5329 17.1539 40.0338 17.4695 39.4454 17.716C38.8675 17.9625 38.2265 18.0858 37.5226 18.0858C36.5139 18.0858 35.6365 17.8787 34.8905 17.4645C34.1445 17.0504 33.5613 16.439 33.141 15.6303C32.7313 14.8118 32.5264 13.8306 32.5264 12.6867C32.5264 11.5724 32.7365 10.6109 33.1568 9.80229C33.5876 8.99366 34.176 8.38226 34.922 7.96809C35.6785 7.54405 36.5349 7.33203 37.491 7.33203Z" fill="#171725"/>
<path d="M44.6811 7.58349V15.9114H48.9365L48.6686 17.8343H42.0963V7.58349H44.6811Z" fill="#171725"/>
<path d="M52.7616 7.58349V17.8343H50.1768V7.58349H52.7616Z" fill="#171725"/>
<path d="M59.2546 7.33203C59.9375 7.33203 60.5417 7.42571 61.0671 7.61308C61.6029 7.80044 62.1073 8.08149 62.5801 8.45622L61.3508 9.83187C61.025 9.5952 60.7046 9.4177 60.3893 9.29936C60.0741 9.18103 59.7379 9.12186 59.3806 9.12186C58.6451 9.12186 58.062 9.41277 57.6312 9.99459C57.2109 10.5764 57.0008 11.4738 57.0008 12.6867C57.0008 13.8799 57.2109 14.7675 57.6312 15.3493C58.062 15.9212 58.6556 16.2072 59.4122 16.2072C59.8114 16.2072 60.1739 16.1382 60.4997 16.0001C60.8254 15.8522 61.1774 15.6451 61.5556 15.3789L62.7062 16.7693C62.2964 17.1539 61.7973 17.4695 61.2089 17.716C60.631 17.9625 59.9901 18.0858 59.2861 18.0858C58.2774 18.0858 57.4 17.8787 56.654 17.4645C55.908 17.0504 55.3249 16.439 54.9046 15.6303C54.4948 14.8118 54.2899 13.8306 54.2899 12.6867C54.2899 11.5724 54.5 10.6109 54.9203 9.80229C55.3511 8.99366 55.9395 8.38226 56.6855 7.96809C57.4421 7.54405 58.2984 7.33203 59.2546 7.33203Z" fill="#171725"/>
<path d="M66.4446 7.58349V17.8343H63.8598V7.58349H66.4446ZM72.7174 7.58349L69.2343 12.1838L73.0011 17.8343H70.0065L66.5234 12.3613L69.9908 7.58349H72.7174Z" fill="#171725"/>
</svg>
