<svg width="28" height="28" viewBox="0 0 28 28" fill="none" xmlns="http://www.w3.org/2000/svg">
    <path d="M21.2605 18.1404C21.4002 18.1006 21.5156 18.021 21.6249 17.9322C22.0834 17.5617 22.4266 17.0932 22.7181 16.5818C23.7688 14.7384 24.3882 12.6714 24.5097 10.5401C24.5218 10.3227 24.5249 10.1053 24.531 9.89093C24.531 9.85725 24.5249 9.82356 24.5522 9.78988C24.6372 9.81437 24.7101 9.85725 24.78 9.91543C25.5938 10.6442 25.7335 12.0253 25.6424 13.045C25.4328 15.461 24.1089 18.0424 21.9832 19.2918C21.9346 19.3194 21.8861 19.35 21.8344 19.3745C21.5065 19.5521 21.1664 19.6899 20.8141 19.8093C20.7473 19.8308 20.6805 19.8553 20.6167 19.8767C20.9052 19.8614 21.3061 19.8093 21.7585 19.6593C22.9701 19.2581 23.9358 18.3517 24.6069 17.2769C24.7708 17.0136 24.9196 16.741 25.0654 16.4654C25.0745 16.4501 25.0836 16.4317 25.1049 16.4256C25.1322 16.4256 25.1413 16.4471 25.1504 16.4685C25.4875 17.2524 25.3994 18.0578 24.9257 18.7651C23.9904 20.1615 22.0166 20.9913 20.3829 21.0005C18.8768 21.0066 17.3736 21.0036 15.8675 21.0036C15.8189 21.0036 15.749 21.0281 15.7338 20.9607C15.7187 20.8903 15.7976 20.8964 15.8401 20.878C18.1237 19.8185 19.8515 17.972 20.9781 15.7183C21.9559 13.7585 22.4478 11.5414 22.2565 9.34586C22.1958 8.64156 22.0652 7.94645 21.8678 7.2697C21.8557 7.2299 21.8405 7.19009 21.8314 7.14722C21.8041 7.00023 21.8466 6.96349 21.9954 6.9788C22.3658 7.01554 22.6908 7.15334 22.9823 7.38301C23.5319 7.8209 23.7445 8.61094 23.869 9.27543C24.1058 10.5217 23.8629 11.8997 23.5744 13.1185C23.1979 14.7047 22.5632 16.2541 21.6492 17.6046C21.552 17.7485 21.4397 17.8802 21.3334 18.021C21.3121 18.0608 21.2878 18.1006 21.2605 18.1404Z" fill="url(#paint0_linear_9815_208328)"/>
    <path d="M5.63403 13.0251V13.0283L5.64059 13.0186L5.63403 13.0251Z" fill="url(#paint1_linear_9815_208328)"/>
    <path d="M9.62145 14.668C9.62687 14.668 9.63229 14.6707 9.63771 14.6707C9.63229 14.6814 9.61874 14.6761 9.62145 14.668Z" fill="white"/>
    <path d="M9.76831 15.4053C9.77352 15.4053 9.77612 15.4079 9.78132 15.4079L9.77352 15.413L9.76831 15.4053Z" fill="white"/>
    <path fill-rule="evenodd" clip-rule="evenodd" d="M12.9424 6.98973C12.2354 6.98905 11.5282 6.98836 10.8209 6.98836C8.28528 6.98836 5.7497 6.98836 3.21108 6.98224C3.18688 6.98224 3.1625 6.98205 3.13801 6.98186C3.06419 6.98128 2.9895 6.9807 2.91653 6.9853C2.63412 7.00368 2.41245 7.1721 2.35779 7.45382C2.33653 7.57018 2.3335 7.6896 2.3335 7.80597V20.1435C2.3335 20.2262 2.3335 20.3058 2.33653 20.3854C2.34868 20.6702 2.49747 20.8815 2.73737 20.9611C2.8558 21.0009 2.97726 21.0101 3.09873 21.0101C3.49034 21.0101 3.88229 21.0094 4.27435 21.0087C5.05881 21.0074 5.84372 21.006 6.62729 21.0101C7.41959 21.0133 8.21226 21.0109 9.00504 21.0085C10.485 21.0041 11.9654 20.9996 13.4445 21.0315C13.8545 21.0407 14.2674 21.0407 14.6774 20.9825C15.0904 20.9243 15.4851 20.8141 15.8617 20.6396C16.5722 20.3119 17.1826 19.8342 17.7565 19.3106C18.0602 19.0319 18.3487 18.7349 18.622 18.4225C18.9864 18.003 19.3234 17.5621 19.6301 17.0997C20.0218 16.5117 20.3771 15.9024 20.6656 15.2532C21.7558 12.8187 21.9501 10.0659 21.3367 7.48138C21.279 7.2364 21.2031 7.00061 20.9146 6.97612C20.8903 6.97489 20.866 6.97269 20.8417 6.97048C20.8053 6.96717 20.7689 6.96387 20.7324 6.96387C20.0218 6.97305 19.3082 6.97918 18.5977 6.98224C16.7118 6.99337 14.8274 6.99155 12.9424 6.98973ZM17.8903 12.5745C18.1271 12.7552 18.3033 13.0063 18.3883 13.2941C18.6312 14.1179 18.2638 15.1713 17.3862 15.4009C17.2435 15.4377 17.0977 15.453 16.952 15.4499C16.8062 15.453 16.6604 15.4377 16.5177 15.4009C15.6401 15.1682 15.2727 14.1179 15.5156 13.2941C15.6007 13.0063 15.7768 12.7552 16.0136 12.5745C16.2839 12.3724 16.6149 12.2652 16.952 12.2561C17.286 12.2622 17.62 12.3694 17.8903 12.5745ZM16.9489 15.0304C17.3832 15.0243 17.6413 14.6047 17.7324 14.2159C17.8235 13.8392 17.8052 13.3983 17.5957 13.0614C17.453 12.8317 17.207 12.6939 16.9489 12.6909C16.6938 12.6909 16.4479 12.8287 16.3021 13.0614C16.0926 13.3983 16.0774 13.8392 16.1655 14.2159C16.2566 14.6078 16.5147 15.0273 16.9489 15.0304ZM8.24341 12.9087C8.24038 12.7128 8.17965 12.5168 8.00959 12.4065C7.84258 12.2994 7.62091 12.3024 7.49033 12.4647L7.4846 12.4719C7.47384 12.4851 7.45796 12.5046 7.463 12.5198C7.46677 12.5312 7.48454 12.5344 7.50112 12.5373C7.51129 12.5391 7.521 12.5409 7.52677 12.5443C7.55714 12.5597 7.56928 12.5903 7.56625 12.6209C7.56625 12.6576 7.56625 13.0159 7.56321 13.5059L6.27568 13.4967C6.26657 13.3895 6.26353 13.2701 6.27264 13.1384C6.27872 13.019 6.2939 12.8965 6.31819 12.7771C6.3273 12.725 6.33945 12.673 6.35463 12.6209C6.3596 12.6028 6.36718 12.5832 6.37501 12.5628C6.39111 12.521 6.4083 12.4763 6.40625 12.4372C6.40625 12.428 6.40322 12.4219 6.40018 12.4157C6.38803 12.4004 6.36678 12.4035 6.34856 12.4096C6.23924 12.4372 6.13296 12.4953 6.04793 12.5719L6.04056 12.5792C6.01149 12.608 5.94823 12.6706 5.89003 12.774C5.72605 13.071 5.71087 13.4936 5.71087 13.4936C5.70176 13.7662 5.69265 14.3204 5.98113 14.8961C5.98113 14.8961 6.18458 15.3003 6.47306 15.3983C6.53076 15.4167 6.54594 15.4044 6.55201 15.3983C6.56853 15.3745 6.54289 15.3396 6.52493 15.3152C6.51977 15.3082 6.51525 15.302 6.51254 15.2972C6.48521 15.2574 6.46395 15.2115 6.44573 15.1686C6.40625 15.0768 6.37892 14.9788 6.36071 14.8777C6.29997 14.5776 6.2605 14.2714 6.26961 13.9652H7.56928V15.1227C7.56928 15.1993 7.59965 15.2727 7.66949 15.3095C7.712 15.3309 7.76059 15.3401 7.80614 15.3462C7.88813 15.3554 7.97316 15.3615 8.05514 15.3462C8.10373 15.337 8.14928 15.3187 8.18572 15.285C8.24341 15.2299 8.24341 15.1594 8.24341 15.086C8.24341 14.795 8.24493 14.5049 8.24645 14.2148C8.24797 13.9246 8.24949 13.6345 8.24949 13.3436C8.24798 13.2705 8.24722 13.1982 8.24646 13.1262V13.1262C8.2457 13.0534 8.24494 12.9811 8.24341 12.9087ZM6.46704 15.5454C5.94171 15.3892 5.73825 14.8319 5.6259 14.345L5.62216 14.3285L5.62216 14.3285C5.59914 14.2271 5.57669 14.1282 5.56517 14.0266C5.52265 13.6989 5.52569 13.3406 5.62894 13.0252C5.56772 13.0395 5.53207 13.085 5.49649 13.1304C5.48618 13.1436 5.47588 13.1568 5.46496 13.1692C5.29491 13.3743 5.27972 13.6162 5.27365 13.8551C5.25543 14.4155 5.45585 14.8135 5.5014 14.8993C5.60464 15.0922 5.71396 15.2178 5.74736 15.2545C5.86276 15.3862 5.98118 15.475 6.07228 15.5362C6.00244 15.5178 5.8992 15.4842 5.79291 15.4168C5.69271 15.3555 5.62286 15.2851 5.57428 15.2331C5.50747 15.1473 5.45888 15.0677 5.42852 15.0156L5.41414 14.9899C5.33448 14.8477 5.23728 14.6741 5.18862 14.4461C5.18601 14.4345 5.18357 14.4228 5.1812 14.4114C5.16976 14.3564 5.15962 14.3078 5.137 14.3052C5.09753 14.3022 5.05501 14.44 5.0459 14.4706C5.01554 14.5686 5.00643 14.6574 5.00946 14.7033C5.0125 14.887 5.14915 15.2453 5.47407 15.4872C5.47407 15.4872 5.75951 15.6985 6.24841 15.7169C6.26966 15.7169 6.38809 15.7138 6.47312 15.6526C6.51259 15.6158 6.54296 15.5699 6.46704 15.5454ZM14.9373 12.5531C14.9616 12.6726 14.9646 12.7736 14.9616 12.841C14.9677 13.0355 14.974 13.2301 14.9803 13.4245L14.9803 13.4248C14.9991 14.0017 15.0178 14.5782 15.0314 15.1529C15.0314 15.1652 15.0284 15.1835 15.0223 15.2019C14.9828 15.3122 14.8401 15.3703 14.7308 15.3703C14.6215 15.3734 14.4879 15.3183 14.4423 15.2172C14.4393 15.2172 14.4332 15.1958 14.4271 15.1744C14.3937 15.0182 14.3755 13.7535 14.3694 13.2023C14.0718 13.8209 13.838 14.2833 13.7287 14.4884C13.7074 14.5313 13.6589 14.617 13.5738 14.6446L13.5738 14.6446C13.5465 14.6507 13.5192 14.6568 13.4918 14.6568C13.4615 14.6568 13.4341 14.6538 13.4099 14.6446C13.3248 14.614 13.2762 14.5313 13.255 14.4884C13.1487 14.2833 12.9149 13.8209 12.6143 13.2023C12.6082 13.7535 12.59 15.0182 12.5566 15.1744C12.5505 15.1958 12.5414 15.2172 12.5414 15.2172C12.4958 15.3183 12.3622 15.3703 12.2529 15.3703C12.1436 15.3703 12.0009 15.3152 11.9614 15.2019C11.9553 15.1835 11.9523 15.1652 11.9523 15.1529C11.9796 14.3848 12.0039 13.6136 12.0281 12.8424L12.0282 12.841C12.0251 12.7736 12.0282 12.6726 12.0525 12.5531L12.0541 12.5452L12.0548 12.5417C12.0576 12.5262 12.0621 12.5017 12.0737 12.4735L12.0763 12.4681C12.0867 12.4464 12.1088 12.4002 12.1588 12.3694C12.1861 12.351 12.2195 12.3388 12.2529 12.3388C12.2742 12.3418 12.2984 12.3418 12.3227 12.3418H12.4199C12.4411 12.3418 12.4624 12.3415 12.4836 12.3412L12.4837 12.3412C12.5262 12.3405 12.5687 12.3398 12.6112 12.3418C12.6689 12.3449 12.7236 12.3633 12.763 12.4061C12.8116 12.4582 12.8511 12.5317 12.9149 12.6879C12.9212 12.7049 12.9276 12.7205 12.9329 12.7335L12.9329 12.7336L12.9392 12.7491L12.9526 12.7781L12.9526 12.7782L12.9526 12.7782C13.0222 12.9291 13.3181 13.5705 13.4372 13.7688C13.4463 13.7841 13.4675 13.8178 13.4949 13.8178C13.5217 13.8208 13.5426 13.7855 13.552 13.7697L13.5526 13.7688C13.6717 13.5705 13.9676 12.9289 14.0371 12.7782L14.0372 12.7781L14.0506 12.7491C14.0531 12.744 14.0556 12.7369 14.0586 12.7285L14.0586 12.7284L14.0586 12.7284C14.0627 12.7165 14.0678 12.7022 14.0749 12.6879C14.1386 12.5286 14.1781 12.4582 14.2267 12.4061C14.2692 12.3633 14.3208 12.3449 14.3785 12.3418H14.5698H14.667C14.6773 12.3418 14.6883 12.3411 14.6996 12.3404C14.7118 12.3396 14.7243 12.3388 14.7369 12.3388C14.7703 12.3388 14.8006 12.351 14.831 12.3694C14.881 12.4002 14.903 12.4464 14.9134 12.4681L14.916 12.4735C14.9276 12.5017 14.9322 12.5262 14.935 12.5417C14.9359 12.5464 14.9366 12.5503 14.9373 12.5531ZM11.3525 12.4371C11.292 12.3578 11.1832 12.3545 11.0833 12.3514L11.0822 12.3514C10.985 12.3483 10.8636 12.3453 10.7846 12.431C10.7421 12.48 10.73 12.5351 10.7269 12.5688C10.7254 12.8535 10.7247 13.1383 10.7239 13.423C10.7231 13.7078 10.7224 13.9927 10.7209 14.2775C10.7209 14.3326 10.7178 14.4367 10.6601 14.5531C10.606 14.668 10.5278 14.7344 10.5008 14.7573L10.4961 14.7613C10.4961 14.7613 10.3534 14.8746 10.1682 14.8899C10.15 14.8899 10.1287 14.893 10.1287 14.893H10.1135H10.0983C10.0983 14.893 10.0801 14.893 10.0589 14.8899C9.87364 14.8746 9.73092 14.7613 9.73092 14.7613L9.72626 14.7573C9.69924 14.7344 9.62106 14.668 9.56694 14.5531C9.51228 14.4367 9.5062 14.3326 9.5062 14.2775C9.50469 13.9927 9.50393 13.708 9.50317 13.4232C9.50241 13.1384 9.50165 12.8536 9.50013 12.5688C9.49709 12.5351 9.48495 12.4769 9.44244 12.431C9.36652 12.3453 9.24202 12.3483 9.14485 12.3514L9.14449 12.3514C9.04136 12.3545 8.93525 12.3576 8.87459 12.4371C8.826 12.4984 8.82904 12.5749 8.83207 12.6086V14.3969C8.83207 14.5623 8.88066 14.7828 9.03856 14.994C9.21469 15.2298 9.46976 15.3339 9.54568 15.3615C9.70359 15.4197 9.85845 15.4381 9.90704 15.4411C9.98903 15.4503 10.0589 15.4503 10.1105 15.4472C10.1621 15.4503 10.232 15.4472 10.3139 15.4411L10.3272 15.4395C10.3867 15.4323 10.5297 15.4151 10.6753 15.3615C10.7543 15.3309 11.0063 15.2268 11.1824 14.994C11.3403 14.7858 11.3889 14.5653 11.3889 14.3969V12.6086C11.398 12.5749 11.4011 12.4984 11.3525 12.4371Z" fill="#2F4653"/>
    <defs>
        <linearGradient id="paint0_linear_9815_208328" x1="14.6379" y1="16.1321" x2="25.957" y2="12.6863" gradientUnits="userSpaceOnUse">
            <stop offset="0.329" stop-color="#9C8837"/>
            <stop offset="0.5606" stop-color="#F7E59E"/>
            <stop offset="0.6012" stop-color="#EFDD95"/>
            <stop offset="0.6639" stop-color="#DDCA81"/>
            <stop offset="0.7405" stop-color="#C4B062"/>
            <stop offset="0.7875" stop-color="#B39F4D"/>
        </linearGradient>
        <linearGradient id="paint1_linear_9815_208328" x1="7.61657" y1="14.5108" x2="5.38114" y2="12.8084" gradientUnits="userSpaceOnUse">
            <stop offset="0.329" stop-color="#9C8837"/>
            <stop offset="0.5606" stop-color="#F7E59E"/>
            <stop offset="0.6012" stop-color="#EFDD95"/>
            <stop offset="0.6639" stop-color="#DDCA81"/>
            <stop offset="0.7405" stop-color="#C4B062"/>
            <stop offset="0.7875" stop-color="#B39F4D"/>
        </linearGradient>
    </defs>
</svg>
