<svg width="69" height="22" viewBox="0 0 69 22" fill="none" xmlns="http://www.w3.org/2000/svg">
<path d="M57.0256 5.53405C56.8628 5.15325 57.1434 4.73055 57.5589 4.73055H60.0184C60.3387 4.73055 60.6257 4.92727 60.7402 5.22517L62.8861 10.8097L65.0079 5.22775C65.1216 4.9285 65.4094 4.73055 65.7306 4.73055H68.034C68.4504 4.73055 68.731 5.15492 68.5664 5.53596L64.0165 16.073C63.8945 16.3555 63.6153 16.5386 63.3065 16.5386H62.2415C61.9317 16.5386 61.6519 16.3543 61.5305 16.0704L57.0256 5.53405Z" fill="#334055"/>
<path d="M50.8469 13.6616C51.2823 13.6616 51.6591 13.5782 51.9772 13.4115C52.3121 13.2447 52.5884 13.0279 52.8061 12.761C53.0405 12.4775 53.208 12.1523 53.3084 11.7853C53.4256 11.4018 53.4842 11.0015 53.4842 10.5845C53.4842 10.1676 53.4256 9.77565 53.3084 9.40873C53.208 9.02514 53.0405 8.69992 52.8061 8.43307C52.5884 8.14954 52.3121 7.92439 51.9772 7.75761C51.6591 7.59083 51.2823 7.50744 50.8469 7.50744C50.4116 7.50744 50.0264 7.59083 49.6915 7.75761C49.3734 7.92439 49.0971 8.14954 48.8627 8.43307C48.645 8.69992 48.4775 9.02514 48.3603 9.40873C48.2431 9.77565 48.1845 10.1676 48.1845 10.5845C48.1845 11.0015 48.2431 11.4018 48.3603 11.7853C48.4775 12.1523 48.645 12.4775 48.8627 12.761C49.0971 13.0279 49.3734 13.2447 49.6915 13.4115C50.0264 13.5782 50.4116 13.6616 50.8469 13.6616ZM50.8469 16.8138C49.8925 16.8138 49.0301 16.6553 48.2598 16.3384C47.5063 16.0049 46.8533 15.5629 46.3007 15.0125C45.7649 14.4455 45.3546 13.7867 45.07 13.0362C44.7853 12.269 44.643 11.4518 44.643 10.5845C44.643 9.71728 44.7853 8.90839 45.07 8.15788C45.3546 7.40737 45.7649 6.74859 46.3007 6.18154C46.8533 5.61448 47.5063 5.17252 48.2598 4.85564C49.0301 4.52208 49.8925 4.3553 50.8469 4.3553C51.8014 4.3553 52.6554 4.52208 53.4089 4.85564C54.1792 5.17252 54.8322 5.61448 55.368 6.18154C55.9206 6.74859 56.3392 7.40737 56.6239 8.15788C56.9086 8.90839 57.0509 9.71728 57.0509 10.5845C57.0509 11.4518 56.9086 12.269 56.6239 13.0362C56.3392 13.7867 55.9206 14.4455 55.368 15.0125C54.8322 15.5629 54.1792 16.0049 53.4089 16.3384C52.6554 16.6553 51.8014 16.8138 50.8469 16.8138Z" fill="#334055"/>
<path d="M39.3533 1.69771C39.3533 0.847463 40.0453 0.158203 40.899 0.158203H43.0706V16.4385H40.899C40.0453 16.4385 39.3533 15.7492 39.3533 14.899V1.69771Z" fill="#334055"/>
<path d="M25.128 18.9674C25.2798 18.5668 25.7275 18.3753 26.1353 18.5109C26.5322 18.643 26.9376 18.7401 27.3627 18.7401C27.9488 18.7401 28.4511 18.6317 28.8698 18.4149C29.6814 18.0418 29.982 17.0934 30.3266 16.3385L26.2498 5.51063C26.1077 5.13321 26.3879 4.7306 26.7926 4.7306H29.2195C29.5509 4.7306 29.8454 4.94105 29.9516 5.25372L32.0848 11.5352L34.2179 5.25372C34.3241 4.94105 34.6186 4.7306 34.95 4.7306H37.2223C37.6281 4.7306 37.9083 5.13523 37.7641 5.51305L33.1648 17.5643C32.629 18.9319 31.9257 19.9826 31.055 20.7165C30.1842 21.467 29.0372 21.8422 27.6139 21.8422C26.7749 21.8422 25.9541 21.6895 25.1663 21.4235C24.6835 21.2606 24.4636 20.7219 24.6435 20.2469L25.128 18.9674Z" fill="#1B9684"/>
<path d="M21.3191 15.3128C20.4325 16.1959 19.3068 16.444 18.041 16.4386C15.7915 16.4289 13.9213 15.3309 13.1811 13.2114C12.6222 11.6111 12.6104 9.68156 13.1811 8.08288C13.931 5.9823 15.7896 4.7306 18.0538 4.7306C19.2702 4.7306 20.4064 4.90214 21.3191 5.70627V5.50036C21.3191 5.07523 21.6651 4.7306 22.0919 4.7306H24.8432V16.4386H22.0919C21.6651 16.4386 21.3191 16.0939 21.3191 15.6688V15.3128ZM20.8419 12.7861C21.294 12.2024 21.52 11.4685 21.52 10.5846C21.52 9.5839 21.2689 8.82505 20.7665 8.30804C19.7833 7.26124 17.9002 7.24447 16.9989 8.4081C16.0802 9.60465 16.1038 11.6229 17.024 12.8111C17.9453 13.9666 19.9375 13.9537 20.8419 12.7861Z" fill="#1B9684"/>
<path d="M6.57855 0.227539H3.32489C2.45923 0.227539 2.0264 0.227539 1.69576 0.395335C1.40492 0.542933 1.16847 0.778448 1.02028 1.06813C0.851807 1.39744 0.851807 1.82855 0.851807 2.69075V3.22958H6.27714C7.08089 3.22958 7.70045 3.43806 8.13582 3.85501C8.19233 3.90504 8.24532 3.9569 8.29477 4.01058C8.64091 4.38636 8.81399 4.85152 8.81399 5.40606C8.81399 5.44776 8.81317 5.48903 8.81153 5.52988C8.78701 6.1426 8.57851 6.66004 8.18605 7.0822C8.13582 7.13849 8.08205 7.19126 8.02476 7.24051C7.62366 7.58528 7.0495 7.75766 6.30226 7.75766H0.851807V13.9754C0.851807 14.8376 0.851807 15.2687 1.02028 15.598C1.16847 15.8877 1.40492 16.1232 1.69576 16.2708C2.0264 16.4386 2.45923 16.4386 3.32489 16.4386H4.20786V10.6346H6.6539C7.49114 10.6346 8.25303 10.5179 8.93957 10.2844C9.64286 10.0509 10.2457 9.70899 10.748 9.25868C11.2504 8.7917 11.6355 8.21631 11.9034 7.53251C12.1881 6.83203 12.3304 6.03149 12.3304 5.13087C12.3304 4.38036 12.1964 3.7049 11.9285 3.1045C11.6606 2.50409 11.2755 1.99541 10.7731 1.57846C10.2708 1.14483 9.6596 0.811269 8.93957 0.577777C8.23629 0.344285 7.44928 0.227539 6.57855 0.227539Z" fill="#1B9684"/>
<ellipse cx="6.42854" cy="5.50364" rx="1.06453" ry="1.06028" fill="#FA8231"/>
</svg>
