<svg width="83" height="24" viewBox="0 0 83 24" fill="none" xmlns="http://www.w3.org/2000/svg">
<path d="M17.8073 3.76614C17.5549 3.36599 17.2258 3.01749 16.8382 2.7399C16.4467 2.47768 16.0178 2.27365 15.5653 2.13441C15.0737 1.97686 14.5662 1.87192 14.0515 1.82141C13.4492 1.76389 12.8443 1.73649 12.2391 1.73931H7.00092C6.8795 1.72807 6.75701 1.74082 6.64071 1.77681C6.52441 1.81279 6.41667 1.87127 6.32386 1.94878C6.23105 2.0263 6.15507 2.12127 6.10041 2.22807C6.04576 2.33488 6.01354 2.45134 6.00567 2.57057C6.00567 2.57057 6.00567 2.60135 6.00567 2.61675V10.9498C6.7319 12.4764 7.93791 13.7351 9.44715 14.5417V12.8689C9.43565 12.7399 9.45025 12.6098 9.49012 12.4863C9.52999 12.3628 9.59434 12.2481 9.67949 12.149C9.76463 12.0499 9.86891 11.9682 9.98633 11.9086C10.1038 11.8489 10.232 11.8126 10.3638 11.8016H11.9353C14.0794 11.8016 15.7155 11.3621 16.8434 10.4829C17.9714 9.60376 18.5441 8.30043 18.5616 6.57292C18.5634 6.07508 18.5036 5.57886 18.3835 5.09512C18.2637 4.62528 18.0693 4.1768 17.8073 3.76614V3.76614ZM14.7377 8.05071C14.555 8.35863 14.2835 8.60678 13.9572 8.76394C13.6037 8.92934 13.2217 9.02854 12.831 9.05642C12.4018 9.10878 11.9697 9.13449 11.5372 9.13339H10.0286C9.66715 9.13339 9.44191 8.84604 9.44191 8.42528V4.98737C9.4367 4.91194 9.44857 4.83631 9.47667 4.7659C9.50477 4.69548 9.54841 4.63202 9.60447 4.58005C9.66052 4.52809 9.72761 4.48889 9.80092 4.46528C9.87424 4.44167 9.95198 4.43422 10.0286 4.44346H11.5372C12.0261 4.44346 12.487 4.45714 12.92 4.48451C13.306 4.50265 13.6847 4.59323 14.0358 4.75133C14.3588 4.89219 14.6282 5.1292 14.8058 5.42865C15.0063 5.83018 15.0983 6.27541 15.0729 6.72172C15.0831 7.18433 14.9674 7.64126 14.7377 8.04557V8.05071ZM9.45238 15.0446C8.16063 14.588 6.98488 13.8634 6.00567 12.9202V16.9482C5.9947 17.025 5.99968 17.1031 6.02032 17.1779C6.04095 17.2527 6.07681 17.3226 6.12574 17.3835C6.17467 17.4443 6.23566 17.4949 6.30504 17.5321C6.37443 17.5693 6.45077 17.5924 6.52949 17.5999H8.89714C9.52572 17.5999 9.45238 16.9431 9.45238 16.9431V15.0446ZM41.9919 6.1265H39.949C39.754 6.11401 39.5608 6.16949 39.4036 6.28312C39.2464 6.39675 39.1353 6.56121 39.0899 6.74738L36.717 13.1511C36.717 13.1511 34.6218 7.31694 34.4646 6.86539C34.4205 6.65705 34.305 6.46971 34.1374 6.33441C33.9697 6.1991 33.7599 6.12394 33.5427 6.12137H31.6622C30.9917 6.12137 30.9917 6.63449 31.0808 6.83461C31.1698 7.03472 33.7418 13.9413 34.7475 16.5839C34.9059 16.9092 35.017 17.2547 35.0775 17.6102C35.0123 17.961 34.877 18.2958 34.6794 18.5954C34.6029 18.7223 34.5153 18.8425 34.4175 18.9545C36.3556 18.3901 38.608 16.3325 39.7395 14.1107C40.8814 11.0319 42.3847 6.92697 42.4528 6.71659C42.5262 6.39332 42.5262 6.1265 41.9919 6.1265ZM32.8879 19.5806C32.7127 19.5759 32.5379 19.5622 32.3641 19.5395C32.1494 19.5087 31.7408 19.5395 31.7408 19.8987V21.4381C31.7408 22.0281 32.0341 22.0692 32.186 22.1102C32.6712 22.2145 33.1665 22.2661 33.6632 22.2642C34.2501 22.2793 34.8327 22.1617 35.3656 21.9204C35.8532 21.6791 36.2861 21.344 36.6385 20.9352C37.038 20.4877 37.3762 19.9908 37.6442 19.4574C37.934 18.8895 38.2099 18.2618 38.4718 17.5742L38.7756 16.7584C38.168 17.3485 35.4861 19.8269 32.8879 19.5806ZM29.7974 7.96861C29.6861 7.70932 29.5341 7.46867 29.3469 7.25537C29.1577 7.05778 28.9428 6.88528 28.7079 6.74225C28.4541 6.57296 28.1839 6.42859 27.9012 6.31122C27.6134 6.20196 27.3174 6.11447 27.016 6.04953C26.671 5.97477 26.3208 5.92503 25.9683 5.90073C25.5912 5.8631 25.1686 5.84428 24.7007 5.84428C21.5787 5.84428 19.8013 6.80895 19.3682 8.73829C19.3498 8.8102 19.3474 8.88518 19.3614 8.95806C19.3753 9.03095 19.4052 9.1 19.449 9.16048C19.4928 9.22095 19.5495 9.2714 19.6151 9.30836C19.6808 9.34532 19.7538 9.3679 19.8292 9.37456H21.7516C22.2754 9.37456 22.2754 9.21549 22.4745 8.77421C22.5617 8.53396 22.7182 8.32364 22.9249 8.16872C23.4161 7.85814 23.9971 7.71227 24.5802 7.7531C25.1241 7.69865 25.6703 7.83106 26.1255 8.12767C26.4726 8.44514 26.6778 8.88403 26.6964 9.3489C26.6964 9.98517 26.4974 10.4059 25.6907 10.4059C23.7788 10.3392 21.7254 10.5496 20.5678 11.2013C19.9979 11.542 19.5301 12.0243 19.2118 12.5992C18.8936 13.1741 18.7361 13.8212 18.7554 14.475C18.7422 14.9842 18.8479 15.4897 19.0644 15.9528C19.2684 16.3553 19.5641 16.7064 19.9287 16.979C20.3115 17.2848 20.7533 17.5117 21.2278 17.6461C21.7638 17.7882 22.3173 17.8573 22.8726 17.8513C23.6196 17.8627 24.3638 17.7588 25.0778 17.5435C25.7089 17.2902 26.3054 16.9609 26.8536 16.5634V16.9226C26.8536 17.2766 26.9636 17.5948 27.3774 17.5948H29.6036C30.0541 17.5948 30.1589 17.2818 30.1589 16.8918V10.175C30.1615 9.75609 30.1318 9.33754 30.0698 8.92301C30.0204 8.59492 29.9289 8.27425 29.7974 7.96861V7.96861ZM26.754 14.5674C26.754 14.5674 26.1779 15.7475 24.135 15.7475C23.6451 15.7696 23.1608 15.6384 22.7521 15.373C22.5722 15.2361 22.4301 15.0574 22.3386 14.8531C22.2471 14.6488 22.2092 14.4254 22.2283 14.203C22.2058 13.9045 22.2763 13.6063 22.4307 13.3479C22.585 13.0895 22.8158 12.8831 23.0926 12.756C23.9189 12.445 24.8007 12.3002 25.6855 12.3301C25.8208 12.3101 25.9591 12.3191 26.0906 12.3564C26.2221 12.3937 26.3438 12.4584 26.4473 12.5462C26.5509 12.634 26.6338 12.7427 26.6903 12.8648C26.7469 12.9869 26.7758 13.1196 26.775 13.2538L26.754 14.5674Z" fill="#333333"/>
<path d="M76.605 10.2467C76.8631 10.6533 76.9998 11.1225 76.9998 11.6013C76.9998 12.0801 76.8631 12.5493 76.605 12.956C76.0812 13.7359 73.2264 16.7223 72.2835 17.6818C71.4663 18.5131 70.3611 19.3546 69.2663 19.3546H46.5903C43.5207 19.3546 43.3374 18.3283 43.3374 16.0398V6.70613C43.3374 4.36116 44.0446 3.67871 46.1451 3.67871H69.3187C70.403 3.67871 71.3721 4.22262 72.4616 5.3207C73.4149 6.25971 76.2278 9.6925 76.605 10.2467Z" fill="#33CCCC"/>
<path d="M48.4849 7.28648V7.23003C48.4849 6.92727 48.4849 6.63477 47.9611 6.63477H46.0595C45.6142 6.63477 45.5933 6.87082 45.5933 7.24029V9.70345C46.3434 8.6805 47.3356 7.85112 48.4849 7.28648V7.28648Z" fill="white"/>
<path d="M61.2187 16.1925V16.0591V10.1171C61.2187 7.63018 60.0977 6.38672 57.8558 6.38672C57.2318 6.39396 56.6223 6.57167 56.0958 6.89984C55.5156 7.25431 54.9974 7.69784 54.561 8.21343C54.3635 7.65616 53.9795 7.18061 53.4714 6.86392C52.8937 6.55197 52.2396 6.40112 51.5805 6.42777C50.611 6.43134 49.6699 6.74886 48.9038 7.33086C48.7361 7.49506 45.588 9.89647 45.588 12.4005V16.2027C45.588 16.3208 45.5252 16.7826 46.0542 16.7826H48.029C48.6419 16.7826 48.5842 16.3875 48.5842 16.2233V10.0658C48.9142 9.62965 49.59 8.58801 50.7057 8.58801C50.8842 8.5721 51.0637 8.6032 51.2258 8.67807C51.3879 8.75295 51.5266 8.86889 51.6276 9.0139C51.8516 9.45199 51.9494 9.94163 51.9105 10.4301V15.2278V16.213C51.9105 16.331 51.8476 16.7928 52.3767 16.7928H54.3305C54.9434 16.7928 54.8858 16.3977 54.8858 16.2335V16.1001V10.0453C55.2419 9.60912 55.9334 8.56749 57.0072 8.56749C57.1877 8.55301 57.369 8.58464 57.5334 8.65928C57.6977 8.73393 57.8395 8.84904 57.9448 8.99338C58.1725 9.43036 58.2722 9.92052 58.2329 10.4096V15.2073V16.1925C58.2329 16.3105 58.1701 16.7723 58.6991 16.7723H60.6739C61.292 16.7415 61.2187 16.3515 61.2187 16.1925Z" fill="white"/>
<path d="M72.1104 13.7778C71.7748 14.6618 71.1599 15.4177 70.3552 15.9355C69.5505 16.4533 68.5981 16.7059 67.6367 16.6566C64.6193 16.6566 62.6077 14.645 62.6077 11.6277C62.6077 8.6103 64.7031 6.49609 67.5319 6.49609C70.3607 6.49609 72.2466 8.4153 72.367 11.5096C72.367 11.9048 72.2675 12.2537 71.7594 12.2537H65.3579C65.3998 13.9112 66.2118 14.8195 67.6576 14.8195C68.0415 14.8289 68.4201 14.7305 68.7487 14.5359C69.0773 14.3413 69.3422 14.0587 69.512 13.7214C69.5789 13.6259 69.669 13.5482 69.7742 13.4954C69.8794 13.4425 69.9963 13.4161 70.1145 13.4186H71.7646C71.8141 13.4163 71.8635 13.425 71.9092 13.4439C71.9548 13.4629 71.9955 13.4917 72.0282 13.5282C72.0609 13.5646 72.0848 13.6079 72.0981 13.6546C72.1114 13.7014 72.1138 13.7505 72.1051 13.7983L72.1104 13.7778ZM67.5424 8.41017C66.3427 8.41017 65.5308 9.22609 65.3527 10.5706H69.6482C69.5382 9.39543 68.8887 8.41017 67.5424 8.41017Z" fill="white"/>
</svg>
