<svg width="28" height="28" viewBox="0 0 28 28" fill="none" xmlns="http://www.w3.org/2000/svg">
    <path fill-rule="evenodd" clip-rule="evenodd" d="M22.3596 14.6788C22.3596 17.8288 21.6402 20.1763 20.2026 21.7059C18.763 23.2378 16.5438 23.9999 13.5494 23.9999C10.7514 23.9999 8.63052 23.2379 7.18142 21.7059C5.7345 20.1762 5.0105 17.867 5.0105 14.7865C5.0105 11.3374 5.0105 7.88848 5.0105 4.43943C5.0105 4.19775 5.20813 4 5.44967 4H10.5228C10.7643 4 10.9619 4.19775 10.9619 4.43943C10.9619 7.96331 10.9619 11.4873 10.9619 15.0112C10.9619 16.2705 11.1949 17.2405 11.6684 17.9232C12.1399 18.6027 12.8148 18.9437 13.6944 18.9437C14.5787 18.9437 15.2526 18.6252 15.7156 17.984C16.1787 17.3427 16.4081 16.3969 16.4081 15.147V13.1672H22.3596V14.6788Z" fill="#014282"/>
    <path fill-rule="evenodd" clip-rule="evenodd" d="M21.9011 12.0121H16.8696H16.4097V11.5518V10.2028V4.46024C16.4097 4.20713 16.6166 4 16.8696 4H17.6915C17.6933 6.57812 19.7827 8.66769 22.3598 8.66769L22.3611 8.66766V10.2028V11.5518V12.0121H21.9012H21.9011Z" fill="#014282"/>
    <path fill-rule="evenodd" clip-rule="evenodd" d="M18.8631 4C19.8764 4 20.8896 4 21.9029 4C22.1559 4 22.3629 4.20712 22.3629 4.46024C22.3629 5.47538 22.3629 6.49055 22.3629 7.50566C20.43 7.50566 18.863 5.93778 18.863 4.00382L18.8631 4H18.8631Z" fill="#FE8700"/>
</svg>
