<svg width="79" height="24" viewBox="0 0 79 24" fill="none" xmlns="http://www.w3.org/2000/svg">
<path fill-rule="evenodd" clip-rule="evenodd" d="M11.2507 0.78125C9.02222 0.78125 6.85266 1.43719 4.99724 2.67074C3.15163 3.9043 1.70853 5.65673 0.854447 7.70286C0.000364941 9.75879 -0.21561 12.0105 0.21634 14.1937C0.648289 16.3671 1.71835 18.3741 3.29889 19.9405C4.87943 21.5069 6.87229 22.574 9.05167 23.0048C11.2311 23.4356 13.4988 23.2202 15.5506 22.3685C17.6023 21.5167 19.3596 20.0776 20.5965 18.237C21.8335 16.3965 22.4912 14.2231 22.4912 12.0007C22.4912 9.02453 21.3033 6.1756 19.1927 4.07073C17.0918 1.96585 14.2351 0.78125 11.2507 0.78125ZM9.95484 4.67772C10.377 4.63856 10.8089 4.61898 11.2507 4.61898C11.6925 4.61898 12.1146 4.61898 12.5465 4.67772V10.6693H9.95484V4.67772ZM18.4957 12.5C18.4957 14.4189 17.7299 16.2594 16.3752 17.6105C15.0204 18.9615 13.1748 19.7251 11.2507 19.7251C9.32655 19.7251 7.49076 18.9615 6.1262 17.6105C4.77145 16.2594 4.00572 14.4189 4.00572 12.5V8.17279C4.94815 7.8595 5.91022 7.61475 6.88211 7.43853V12.4804C6.88211 16.1028 8.42338 18.0021 11.2507 18.0021C14.078 18.0021 15.6193 16.1028 15.6193 12.4804V7.42874C16.5912 7.60496 17.5532 7.84971 18.4957 8.163V12.5Z" fill="#7000FF"/>
<path d="M40.201 7.43945H48.8695V9.63244L43.6174 14.3415V14.3806H49.056V16.5736H39.9458V14.3806L45.1979 9.6716V9.63244H40.201V7.43945Z" fill="#7000FF"/>
<path d="M35.4002 12.4412V7.42871H38.0312V12.8426C38.0312 16.2888 35.2628 16.7391 33.0736 16.7391C30.8844 16.7391 28.116 16.4552 28.116 12.8426V7.42871H30.7469V12.4412C30.7469 14.0272 31.7974 14.4091 33.0834 14.4091C34.3596 14.4091 35.4002 14.0468 35.4002 12.4412Z" fill="#7000FF"/>
<path d="M58.4024 7.42871V12.4412C58.4024 14.0566 57.3618 14.4091 56.0758 14.4091C54.7897 14.4091 53.7491 14.037 53.7491 12.4412V7.42871H51.1182V12.8426C51.1182 16.4552 53.8866 16.7391 56.0758 16.7391C58.265 16.7391 61.0334 16.2888 61.0334 12.8426V7.42871H58.4024Z" fill="#7000FF"/>
<path d="M70.8605 8.24153C71.7735 7.58559 72.873 7.24293 74.002 7.26251C77.3005 7.26251 78.5374 9.36739 78.5374 11.2667V16.5729H75.9261V11.531C75.9261 10.7086 75.5236 9.60235 74.0707 9.60235C72.8632 9.60235 72.2349 10.4541 72.2349 11.2275V16.5729H69.5745V11.2275C69.5745 10.4443 68.9266 9.60235 67.7191 9.60235C66.2661 9.60235 65.8636 10.6988 65.8636 11.531V16.5729H63.2327V11.2667C63.2327 9.3576 64.3518 7.26251 67.6602 7.26251C68.8087 7.24293 69.9181 7.58559 70.8605 8.24153Z" fill="#7000FF"/>
</svg>
