<svg width="56" height="56" viewBox="0 0 56 56" fill="none" xmlns="http://www.w3.org/2000/svg">
<path fill-rule="evenodd" clip-rule="evenodd" d="M33.6003 31.7333V35.4666C33.6017 35.4706 33.603 35.4746 33.6043 35.4785C34.2293 35.5497 34.7835 35.9334 35.0657 36.5044L35.6605 37.7057C36.8199 38.3497 38.3257 38.7925 39.9311 39.2645C44.1512 40.5053 49.0591 41.9484 50.1694 47.7802C50.4405 49.2044 49.2251 50.3999 47.7753 50.3999H8.22533C6.77559 50.3999 5.56018 49.2044 5.83131 47.7802C6.94156 41.9484 11.8495 40.5053 16.0695 39.2645C17.675 38.7925 19.1808 38.3497 20.3402 37.7057L20.935 36.5044C21.2172 35.9334 21.7714 35.5497 22.3963 35.4785C22.3977 35.4746 22.399 35.4706 22.4003 35.4666V31.7333C21.5603 31.317 19.1579 28.4573 18.9059 26.221C18.2451 26.1706 17.2073 25.5639 16.9011 23.169C16.7369 21.8847 17.3902 21.1605 17.7859 20.9327C17.7859 20.9327 17.3249 19.9471 17.0337 18.6666H16.8003C16.8003 11.1999 18.667 7.46658 18.667 7.46658C18.667 7.46658 22.4003 5.59991 28.0003 5.59991C33.6003 5.59991 37.3337 7.46658 37.3337 7.46658C37.3337 7.46658 39.2003 13.0666 39.2003 18.6666H38.9857L38.2147 20.9346C38.6105 21.1623 39.2638 21.8847 39.0995 23.1709C38.7934 25.5658 37.7555 26.1725 37.0947 26.2229C36.8427 28.4573 34.4403 31.317 33.6003 31.7333ZM26.1337 16.7999C26.1337 17.8303 26.9699 18.6666 28.0003 18.6666C29.0307 18.6666 29.867 17.8303 29.867 16.7999V14.9332H31.7337C32.7641 14.9332 33.6003 14.097 33.6003 13.0666C33.6003 12.0362 32.7641 11.1999 31.7337 11.1999H29.867V9.33325C29.867 8.30285 29.0307 7.46658 28.0003 7.46658C26.9699 7.46658 26.1337 8.30285 26.1337 9.33325V11.1999H24.267C23.2366 11.1999 22.4003 12.0362 22.4003 13.0666C22.4003 14.097 23.2366 14.9332 24.267 14.9332H26.1337V16.7999Z" fill="#C6C6C6"/>
</svg>
