<svg width="36" height="36" viewBox="0 0 36 36" fill="none" xmlns="http://www.w3.org/2000/svg">
<path d="M17.9999 3C11.5656 3 6.09364 7.059 3.96289 12.75H32.0361C29.9061 7.059 24.4341 3 17.9999 3Z" fill="#F3F4F5"/>
<path d="M33 18C33 16.1498 32.649 14.3865 32.037 12.75H3.963C3.351 14.3865 3 16.1498 3 18C3 19.8503 3.351 21.6135 3.963 23.25H32.0363C32.649 21.6135 33 19.8503 33 18Z" fill="#3F51B5"/>
<path d="M32.0369 23.25H3.96289C6.09364 28.941 11.5656 33 17.9999 33C24.4341 33 29.9061 28.941 32.0369 23.25Z" fill="#FF3D00"/>
</svg>
