<svg width="20" height="20" viewBox="0 0 20 20" fill="none" xmlns="http://www.w3.org/2000/svg">
<path d="M10 17.5C14.1421 17.5 17.5 14.1421 17.5 10C17.5 5.85786 14.1421 2.5 10 2.5C5.85786 2.5 2.5 5.85786 2.5 10C2.5 14.1421 5.85786 17.5 10 17.5Z" stroke="#3FA6A0" stroke-width="1.5" stroke-linecap="round" stroke-linejoin="round"/>
<path d="M10 14.166V14.1743" stroke="#3FA6A0" stroke-width="1.5" stroke-linecap="round" stroke-linejoin="round"/>
<path d="M10 11.251C9.98466 10.9804 10.0576 10.7122 10.2079 10.4868C10.3582 10.2613 10.5777 10.0908 10.8333 10.001C11.1466 9.88117 11.4277 9.69031 11.6546 9.44341C11.8816 9.19651 12.0481 8.9003 12.1411 8.57811C12.2341 8.25591 12.2511 7.91653 12.1906 7.58667C12.1302 7.25682 11.994 6.94549 11.7928 6.67721C11.5916 6.40893 11.3308 6.19102 11.0311 6.04063C10.7313 5.89024 10.4008 5.81149 10.0654 5.81056C9.73009 5.80963 9.39911 5.88655 9.09854 6.03527C8.79797 6.184 8.53603 6.40046 8.33334 6.66762" stroke="#3FA6A0" stroke-width="1.5" stroke-linecap="round" stroke-linejoin="round"/>
</svg>
