<svg width="20" height="20" viewBox="0 0 20 20" fill="none" xmlns="http://www.w3.org/2000/svg">
<path d="M4 5.33268H16M6 2.66602H14H6Z" stroke="white" stroke-width="2" stroke-miterlimit="10" stroke-linecap="round" stroke-linejoin="round"/>
<path d="M4 4.66602V17.2851C4 17.6796 4.3198 17.9994 4.71429 17.9994H7.28571C7.6802 17.9994 8 17.6796 8 17.2851V15.3803C8 14.9858 8.3198 14.666 8.71429 14.666H11.2857C11.6802 14.666 12 14.9858 12 15.3803V17.2851C12 17.6796 12.3198 17.9994 12.7143 17.9994H15.2857C15.6802 17.9994 16 17.6796 16 17.2851V4.66602H4ZM12 10.666H10.6667V11.9993C10.6667 12.3673 10.368 12.666 10 12.666C9.632 12.666 9.33333 12.3673 9.33333 11.9993V10.666H8C7.632 10.666 7.33333 10.3673 7.33333 9.99935C7.33333 9.63135 7.632 9.33268 8 9.33268H9.33333V7.99935C9.33333 7.63135 9.632 7.33268 10 7.33268C10.368 7.33268 10.6667 7.63135 10.6667 7.99935V9.33268H12C12.368 9.33268 12.6667 9.63135 12.6667 9.99935C12.6667 10.3673 12.368 10.666 12 10.666Z" fill="white"/>
</svg>
