<svg width="20" height="20" viewBox="0 0 20 20" fill="none" xmlns="http://www.w3.org/2000/svg">
<path fill-rule="evenodd" clip-rule="evenodd" d="M12.0001 11.3333V12.6667C12.0006 12.6681 12.0011 12.6695 12.0016 12.6709C12.2248 12.6964 12.4227 12.8334 12.5235 13.0373L12.7359 13.4664C13.15 13.6964 13.6878 13.8545 14.2611 14.0231C15.7683 14.4662 17.5211 14.9816 17.9176 17.0644C18.0145 17.573 17.5804 18 17.0626 18H2.93762C2.41986 18 1.98578 17.573 2.08261 17.0644C2.47913 14.9816 4.23196 14.4662 5.73913 14.0231C6.31249 13.8545 6.85029 13.6964 7.26435 13.4664L7.47679 13.0373C7.57756 12.8334 7.77549 12.6964 7.99869 12.6709C7.99917 12.6695 7.99965 12.6681 8.00012 12.6667V11.3333C7.70012 11.1847 6.84212 10.1633 6.75212 9.36467C6.51612 9.34667 6.14546 9.13 6.03612 8.27467C5.97746 7.816 6.21079 7.55733 6.35212 7.476C6.35212 7.476 6.18746 7.124 6.08346 6.66667H6.00012C6.00012 4 6.66679 2.66667 6.66679 2.66667C6.66679 2.66667 8.00012 2 10.0001 2C12.0001 2 13.3335 2.66667 13.3335 2.66667C13.3335 2.66667 14.0001 4.66667 14.0001 6.66667H13.9235L13.6481 7.47667C13.7895 7.558 14.0228 7.816 13.9641 8.27533C13.8548 9.13067 13.4841 9.34734 13.2481 9.36534C13.1581 10.1633 12.3001 11.1847 12.0001 11.3333ZM9.33346 6C9.33346 6.368 9.63212 6.66667 10.0001 6.66667C10.3681 6.66667 10.6668 6.368 10.6668 6V5.33333H11.3335C11.7015 5.33333 12.0001 5.03467 12.0001 4.66667C12.0001 4.29867 11.7015 4 11.3335 4H10.6668V3.33333C10.6668 2.96533 10.3681 2.66667 10.0001 2.66667C9.63212 2.66667 9.33346 2.96533 9.33346 3.33333V4H8.66679C8.29879 4 8.00012 4.29867 8.00012 4.66667C8.00012 5.03467 8.29879 5.33333 8.66679 5.33333H9.33346V6Z" fill="white"/>
</svg>
