<svg width="20" height="20" viewBox="0 0 20 20" fill="none" xmlns="http://www.w3.org/2000/svg">
<path d="M5 3.33398H4.16667C3.24619 3.33398 2.5 4.08018 2.5 5.00065V7.91732V7.91732C2.5 10.4486 4.55203 12.5007 7.08333 12.5007C9.61464 12.5007 11.6667 10.4486 11.6667 7.91732V5.00065C11.6667 4.08018 10.9205 3.33398 10 3.33398H9.16667" stroke="#43B7B1" stroke-width="1.8" stroke-linecap="round" stroke-linejoin="round"/>
<path d="M6.66699 12.5C6.66699 14.2863 7.61999 15.937 9.16699 16.8301C10.714 17.7233 12.62 17.7233 14.167 16.8301C15.714 15.937 16.667 14.2863 16.667 12.5V10" stroke="#43B7B1" stroke-width="1.8" stroke-linecap="round" stroke-linejoin="round"/>
<path d="M9.16667 2.5V4.16667" stroke="#43B7B1" stroke-width="1.8" stroke-linecap="round" stroke-linejoin="round"/>
<path d="M4.99967 2.5V4.16667" stroke="#43B7B1" stroke-width="1.8" stroke-linecap="round" stroke-linejoin="round"/>
<circle cx="16.6667" cy="8.33268" r="1.66667" stroke="#43B7B1" stroke-width="1.8" stroke-linecap="round" stroke-linejoin="round"/>
</svg>
