<svg width="166" height="125" viewBox="0 0 166 125" fill="none" xmlns="http://www.w3.org/2000/svg">
<path d="M147.086 96.0346C149.827 96.0346 152.049 93.8123 152.049 91.071C152.049 88.3297 149.827 86.1074 147.086 86.1074C144.345 86.1074 142.122 88.3297 142.122 91.071C142.122 93.8123 144.345 96.0346 147.086 96.0346Z" fill="#F1F9F9"/>
<path d="M137.554 109.883C139.426 109.883 140.944 108.365 140.944 106.493C140.944 104.621 139.426 103.104 137.554 103.104C135.682 103.104 134.164 104.621 134.164 106.493C134.164 108.365 135.682 109.883 137.554 109.883Z" fill="#F1F9F9"/>
<path d="M27.7176 27.0276C29.5898 27.0276 31.1074 25.5099 31.1074 23.6378C31.1074 21.7657 29.5898 20.248 27.7176 20.248C25.8455 20.248 24.3279 21.7657 24.3279 23.6378C24.3279 25.5099 25.8455 27.0276 27.7176 27.0276Z" fill="#F1F9F9"/>
<path d="M7.01598 92.4031C10.4928 92.4031 13.3113 89.5846 13.3113 86.1078C13.3113 82.631 10.4928 79.8125 7.01598 79.8125C3.53919 79.8125 0.720703 82.631 0.720703 86.1078C0.720703 89.5846 3.53919 92.4031 7.01598 92.4031Z" fill="#F1F9F9"/>
<path d="M83.4673 124C117.365 124 144.846 96.5187 144.846 62.5C144.846 28.4813 117.365 1 83.4673 1C49.5697 1 22.0884 28.4813 22.0884 62.5C22.0884 96.5187 49.5697 124 83.4673 124Z" fill="#F1F9F9" stroke="#D6E8E7" stroke-width="2" stroke-miterlimit="10"/>
<path d="M119.113 10.2441C120.939 10.2441 122.483 11.6416 122.483 13.5981V112.539C122.483 114.355 121.079 115.892 119.113 115.892H45.9445C44.1188 115.892 42.574 114.495 42.574 112.539V13.5981C42.574 11.7814 43.9784 10.2441 45.9445 10.2441H119.113Z" fill="#F1F9F9" stroke="#D6E8E7" stroke-width="2" stroke-miterlimit="10"/>
<path opacity="0.3" d="M122.483 20.5857V112.399C122.483 114.216 121.079 115.753 119.113 115.753H52.2641L46.3657 109.884L112.793 18.9087L118.551 16.8125L122.483 20.5857Z" fill="#BCCFCE"/>
<path d="M118.832 17.9305C118.832 17.3715 118.411 16.8125 117.708 16.8125H47.4892C46.9275 16.8125 46.3657 17.2317 46.3657 17.9305V108.766C46.3657 109.325 46.787 109.884 47.4892 109.884H117.568C118.13 109.884 118.691 109.464 118.691 108.766L118.832 17.9305Z" fill="#F1F9F9" stroke="#D6E8E7" stroke-width="2" stroke-miterlimit="10"/>
<path d="M118.832 17.9305C118.832 17.3715 118.411 16.8125 117.709 16.8125H47.4894C46.9276 16.8125 46.3659 17.2317 46.3659 17.9305C47.2085 54.1248 47.4894 95.0705 43.5571 105.691L110.827 104.713C114.9 86.2665 117.989 53.1466 118.832 17.9305Z" fill="#F1F9F9" stroke="#D6E8E7" stroke-width="2" stroke-miterlimit="10"/>
<path d="M118.691 16.9512C118.691 16.9512 118.55 22.4013 116.865 57.1982C116.865 57.4777 116.865 57.6174 116.865 57.8969C114.759 91.995 84.4239 99.1221 80.7725 99.5413C79.0873 99.6811 75.8572 99.9606 70.0992 99.9606C62.9369 100.24 51.9827 100.38 34.8492 100.52C34.2875 100.52 33.8661 99.9606 34.147 99.4016C45.9438 75.7844 46.0843 17.0909 46.0843 17.0909L118.691 16.9512Z" fill="white" stroke="#D6E8E7" stroke-width="2" stroke-miterlimit="10"/>
<path fill-rule="evenodd" clip-rule="evenodd" d="M88.6467 36.7513L85.725 45.266H82.6364L83.4294 36L88.6467 36.7513ZM82.2117 48.8097L67.869 80.0002H74.2298L77.0658 73.8327H91.2717L94.1078 80.0002H100.469L86.1258 48.8097H82.2117ZM79.7233 68.0537L84.1688 58.3863L88.6142 68.0537H79.7233ZM72.6743 50.2635L73.3428 48.8098H79.7036L77.9248 52.6779L65.3608 80.0002H59L72.6743 50.2635Z" fill="#AAC5C4"/>
<path d="M116.725 57.7578C114.759 91.856 84.2839 98.983 80.6325 99.4023C78.9473 99.542 75.7172 99.8215 69.9592 99.8215C85.1266 92.8342 93.272 80.257 93.1315 70.4747C100.434 71.0337 113.074 70.4747 116.725 57.7578Z" fill="#F1F9F9" stroke="#D6E8E7" stroke-width="2" stroke-miterlimit="10"/>
<path d="M99.5919 10.5222C99.5919 10.3824 99.5919 10.3824 99.5919 10.5222L98.8897 9.82345C98.8897 9.82345 98.4684 9.9632 98.3279 10.2427H87.3737C87.3737 9.9632 87.3737 9.82345 87.3737 9.54396C87.3737 7.30801 85.4076 5.35156 83.1606 5.35156C80.9136 5.35156 78.9474 7.30801 78.9474 9.54396C78.9474 9.82345 78.9474 9.9632 79.0879 10.1029H67.7124C67.1506 10.1029 66.5889 10.5222 66.5889 11.3607V14.9941C66.5889 17.789 68.555 19.466 71.2233 19.466H94.5361C97.3448 19.466 99.7323 17.789 99.7323 14.9941V11.2209C99.8727 10.9414 99.7323 10.6619 99.5919 10.5222Z" fill="#1C5451"/>
<path d="M99.1706 10.5228V14.1562C99.1706 14.4357 99.1706 14.5754 99.1706 14.8549C98.7493 17.2306 96.7831 19.1871 94.2553 19.1871H70.8021C68.2742 19.1871 66.308 17.2306 65.8867 14.8549C65.8867 14.5754 65.8867 14.4357 65.8867 14.1562V10.5228C65.8867 9.96379 66.308 9.26505 67.0102 9.26505H78.5262C78.5262 8.98556 78.5262 8.84581 78.5262 8.70607C78.5262 6.47012 80.4923 4.51367 82.7393 4.51367C84.9863 4.51367 86.9525 6.47012 86.9525 8.70607C86.9525 8.98556 86.9525 9.12531 86.9525 9.26505H98.4684C98.7493 9.4048 99.1706 9.82404 99.1706 10.5228Z" fill="#AAC5C4"/>
<path d="M82.4583 10.6629C83.5818 10.6629 84.4245 9.82442 84.4245 8.70645C84.4245 7.58848 83.5818 6.75 82.4583 6.75C81.3348 6.75 80.4922 7.58848 80.4922 8.70645C80.4922 9.82442 81.4753 10.6629 82.4583 10.6629Z" fill="#F1F9F9"/>
<path d="M158.716 17.3711C161.806 31.9047 161.385 47.2768 157.172 61.531C156.189 64.4657 155.205 67.6798 153.099 69.9158C150.15 73.4094 144.813 74.9466 140.459 73.8287C135.965 72.7107 132.314 68.7978 131.471 64.0464C130.769 61.1117 131.752 57.6181 134.28 55.8014C136.948 54.1244 140.74 54.5437 142.987 56.6399C145.515 58.7361 146.498 61.9502 146.358 65.0246C146.217 68.0991 145.094 71.1735 143.549 73.8287C138.915 82.493 130.488 89.3405 120.798 92.415C113.636 94.6509 105.912 94.6509 98.7493 92.6945" stroke="#D6E8E7" stroke-width="2" stroke-miterlimit="10" stroke-dasharray="4 4"/>
<path d="M164.615 13.1796C164.193 14.7169 162.508 15.2758 160.823 14.2976C158.997 13.4591 157.733 12.7604 158.014 11.3629C158.435 9.96548 160.121 9.82573 162.087 9.68598C164.474 9.40649 164.896 11.6424 164.615 13.1796Z" fill="#F1F9F9" stroke="#D6E8E7" stroke-width="2" stroke-miterlimit="10"/>
<path d="M150.992 14.577C151.695 15.8347 153.661 16.6732 155.065 15.4155C156.61 14.018 157.874 13.0398 157.172 11.6423C156.469 10.3846 155.346 10.8038 152.958 11.0833C150.992 11.5026 150.15 13.1795 150.992 14.577Z" fill="#F1F9F9" stroke="#D6E8E7" stroke-width="2" stroke-miterlimit="10"/>
<path d="M157.172 9.40617C158.155 9.26642 159.138 9.82541 159.419 10.6639C159.559 10.9434 159.699 11.3626 159.699 11.6421C159.98 13.5986 159.278 15.2755 158.155 15.4153C156.891 15.6948 155.627 14.2973 155.486 12.4806C155.486 11.9216 155.486 11.6421 155.486 11.2229C155.627 10.2446 156.189 9.54591 157.172 9.40617C157.172 9.40617 157.312 9.40617 157.172 9.40617Z" fill="#F1F9F9"/>
<path d="M157.172 9.40617C158.155 9.26642 159.138 9.82541 159.419 10.6639C159.559 10.9434 159.699 11.3626 159.699 11.6421C159.98 13.5986 159.278 15.2755 158.155 15.4153C156.891 15.6948 155.627 14.2973 155.486 12.4806C155.486 11.9216 155.486 11.6421 155.486 11.2229C155.627 10.2446 156.189 9.54591 157.172 9.40617ZM157.172 9.40617C157.172 9.40617 157.312 9.40617 157.172 9.40617Z" stroke="#D6E8E7" stroke-width="2" stroke-miterlimit="10"/>
</svg>
