<svg width="151" height="150" viewBox="0 0 151 150" fill="none" xmlns="http://www.w3.org/2000/svg">
<path d="M75.25 135.5C108.939 135.5 136.25 108.301 136.25 74.75C136.25 41.1987 108.939 14 75.25 14C41.5606 14 14.25 41.1987 14.25 74.75C14.25 108.301 41.5606 135.5 75.25 135.5Z" fill="#EFEFEF"/>
<path fill-rule="evenodd" clip-rule="evenodd" d="M124.003 47.6003C126.066 46.0865 126.512 43.1864 124.998 41.1229C123.484 39.0594 120.584 38.6139 118.52 40.1277C116.457 41.6416 116.011 44.5416 117.525 46.6051C118.459 47.8778 119.92 48.535 121.387 48.4967C121.492 48.4851 121.6 48.4785 121.711 48.4769C122.513 48.3995 123.305 48.1117 124.003 47.6003ZM102.837 48.8513C107.412 49.8701 111.572 50.5061 115.753 49.9383C115.353 49.5748 114.983 49.1662 114.651 48.7136C111.973 45.0628 112.761 39.932 116.412 37.2536C120.063 34.5753 125.194 35.3636 127.872 39.0144C129.265 40.9136 129.72 43.2132 129.322 45.3598C132.628 43.4901 135.571 41.128 137.858 38.1075C138.452 37.3226 139.565 37.1938 140.345 37.8197C141.124 38.4456 141.274 39.5894 140.68 40.3743C136.552 45.8279 130.786 49.0228 124.844 51.2399C124.001 51.6506 123.11 51.9049 122.21 52.0089C115.481 54.4488 108.538 53.8604 102.051 52.4161C101.099 52.204 100.502 51.2341 100.719 50.2497C100.936 49.2653 101.884 48.6392 102.837 48.8513Z" fill="#181919"/>
<path d="M111 48.75C111 37.0139 101.486 27.5 89.75 27.5H69.5V70H89.75C101.486 70 111 60.486 111 48.75Z" fill="#43B7B1"/>
<path d="M87.2043 62.2777C84.1935 68.1154 79.1537 71.9377 73.4478 71.9377H67.9362C58.7098 71.9377 51.228 61.9413 51.228 49.6139C51.228 37.2865 58.7098 27.2935 67.9362 27.29H73.4652C79.171 27.29 84.2178 31.1055 87.2216 36.9501C89.1578 40.8896 90.1647 45.2208 90.1647 49.6104C90.1647 54.0001 89.1578 58.3312 87.2216 62.2708L87.2043 62.2777Z" fill="#181919"/>
<path d="M81.6305 62.2777C78.6267 68.1049 73.5972 71.9239 67.9018 71.9377C58.6823 71.9377 51.2109 61.9343 51.2109 49.6139C51.2109 37.2934 58.6823 27.3039 67.9018 27.29C73.5972 27.29 78.6267 31.1055 81.6305 36.9501C83.569 40.8889 84.5771 45.2204 84.5771 49.6104C84.5771 54.0005 83.569 58.3319 81.6305 62.2708V62.2777Z" fill="#D2D2D2"/>
<path d="M68.4015 53.7299C67.5881 52.27 66.2264 51.3133 64.6843 51.3098C62.188 51.3098 60.165 53.8159 60.165 56.9024C60.165 59.989 62.188 62.4916 64.6843 62.4951C66.2264 62.4951 67.5881 61.5392 68.4015 60.075C68.9263 59.0882 69.1993 58.0031 69.1993 56.9033C69.1993 55.8035 68.9263 54.7184 68.4015 53.7316V53.7299Z" fill="white"/>
<path d="M68.4015 38.6727C67.5881 37.2129 66.2264 36.2562 64.6843 36.2527C62.188 36.2527 60.165 38.7588 60.165 41.8453C60.165 44.9319 62.188 47.4345 64.6843 47.4379C66.2264 47.4379 67.5881 46.4821 68.4015 45.0179C68.9263 44.0311 69.1993 42.946 69.1993 41.8462C69.1993 40.7464 68.9263 39.6613 68.4015 38.6745V38.6727Z" fill="white"/>
<path d="M49.5 57.2373C49.5 59.3154 51.1846 61 53.2627 61H64C66.2091 61 68 59.2091 68 57C68 54.7909 66.2091 53 64 53H53.2627C51.1846 53 49.5 54.6846 49.5 56.7627V57.2373Z" fill="#181919"/>
<path d="M49.5 41.75C49.5 43.8211 51.1789 45.5 53.25 45.5H64.25C66.3211 45.5 68 43.8211 68 41.75C68 39.6789 66.3211 38 64.25 38H53.25C51.1789 38 49.5 39.6789 49.5 41.75Z" fill="#181919"/>
<path fill-rule="evenodd" clip-rule="evenodd" d="M79.9263 68.5894H90.1691V70.0894H79.9263V68.5894Z" fill="#181919"/>
<path fill-rule="evenodd" clip-rule="evenodd" d="M14.1784 100.922C22.8261 95.7294 32.6224 94.7408 42.0019 95.0516C43.3421 95.096 44.3926 96.2184 44.3482 97.5587C44.3038 98.8989 43.1813 99.9493 41.8411 99.9049C32.8394 99.6067 24.152 100.597 16.6783 105.085C15.5287 105.776 14.0371 105.403 13.3468 104.254C12.6565 103.104 13.0288 101.612 14.1784 100.922Z" fill="#181919"/>
<path d="M35 97.5C35 85.902 44.402 76.5 56 76.5H76.5V118.5H56C44.402 118.5 35 109.098 35 97.5Z" fill="#43B7B1"/>
<path d="M55.4809 111.343C58.4951 117.18 63.5349 121.003 69.2408 121.003H74.7697C83.9962 121.003 91.4779 111.006 91.4779 98.6788C91.4779 86.3514 83.9962 76.3584 74.7697 76.355H69.2408C63.5349 76.355 58.4881 80.1704 55.4809 86.015C53.5102 89.9435 52.5009 94.2839 52.536 98.6788C52.5009 103.074 53.5102 107.414 55.4809 111.343Z" fill="#181919"/>
<path d="M61.0541 111.343C64.0614 117.17 69.0874 120.989 74.7863 121.003C84.0058 121.003 91.4771 110.999 91.4771 98.6788C91.4771 86.3584 84.0058 76.3688 74.7863 76.3584C69.0874 76.3584 64.0614 80.1739 61.0541 86.015C59.0835 89.9435 58.0741 94.2839 58.1093 98.6788C58.0741 103.074 59.0835 107.414 61.0541 111.343Z" fill="#D2D2D2"/>
<path d="M76.2974 101.644C78.5545 101.644 80.3843 104.051 80.3843 107.021C80.3843 109.991 78.5545 112.399 76.2974 112.399C74.0402 112.399 72.2104 109.991 72.2104 107.021C72.2104 104.051 74.0402 101.644 76.2974 101.644Z" fill="white"/>
<path d="M76.2974 84.4354C78.5545 84.4354 80.3843 86.843 80.3843 89.8129C80.3843 92.7828 78.5545 95.1904 76.2974 95.1904C74.0402 95.1904 72.2104 92.7828 72.2104 89.8129C72.2104 86.843 74.0402 84.4354 76.2974 84.4354Z" fill="white"/>
<path fill-rule="evenodd" clip-rule="evenodd" d="M54.0493 117.108H62.6748V118.608H54.0493V117.108Z" fill="#181919"/>
<path fill-rule="evenodd" clip-rule="evenodd" d="M119.536 20.2514C120.189 17.6042 120.146 15.055 120.225 12.3699C120.24 11.8455 119.827 11.4095 119.302 11.3937C118.778 11.3779 118.34 11.7918 118.324 12.3162C118.25 14.8622 118.31 17.2851 117.69 19.7996C117.565 20.3082 117.877 20.8231 118.386 20.9463C118.896 21.0727 119.411 20.76 119.536 20.2514Z" fill="#181919"/>
<path fill-rule="evenodd" clip-rule="evenodd" d="M125.084 25.3817C129.514 21.3446 133.688 16.1513 136.605 10.9075C136.86 10.4495 136.694 9.87137 136.235 9.61866C135.776 9.36594 135.197 9.53022 134.943 9.98827C132.122 15.0583 128.085 20.081 123.802 23.9823C123.415 24.3361 123.388 24.9363 123.741 25.3217C124.095 25.7071 124.697 25.7355 125.084 25.3817Z" fill="#181919"/>
<path fill-rule="evenodd" clip-rule="evenodd" d="M126.206 29.7915C130.258 30.458 134.434 29.3208 138.118 27.7129C138.599 27.5013 138.818 26.9421 138.608 26.4651C138.397 25.985 137.836 25.767 137.356 25.9755C134 27.4412 130.206 28.5279 126.516 27.9214C125.998 27.8361 125.509 28.1867 125.423 28.7016C125.338 29.2165 125.689 29.7062 126.206 29.7915Z" fill="#181919"/>
<path fill-rule="evenodd" clip-rule="evenodd" d="M14.5745 126.276C15.1518 126.07 15.7592 125.797 16.2277 125.401C16.784 124.931 17.0103 124.326 17.1622 123.688C17.3573 122.87 17.4352 121.997 17.6718 121.177C17.7593 120.873 17.9279 120.758 18.0002 120.707C18.183 120.578 18.3678 120.543 18.5416 120.556C18.7476 120.571 19.0306 120.649 19.2167 120.994C19.2433 121.044 19.2778 121.119 19.301 121.222C19.3179 121.298 19.3288 121.534 19.3468 121.632C19.3915 121.872 19.429 122.112 19.4642 122.354C19.5813 123.158 19.6487 123.84 20.0186 124.579C20.5205 125.581 21.0234 126.195 21.7055 126.466C22.365 126.729 23.1536 126.68 24.1611 126.474C24.257 126.451 24.3519 126.431 24.4458 126.414C24.89 126.337 25.3146 126.628 25.4019 127.071C25.4891 127.513 25.2068 127.944 24.7666 128.041C24.6747 128.062 24.5841 128.081 24.4945 128.098C23.133 128.435 21.5569 129.638 20.6409 130.692C20.3586 131.016 19.9452 131.924 19.5236 132.504C19.2124 132.931 18.8627 133.213 18.5691 133.312C18.3724 133.379 18.2065 133.369 18.0695 133.335C17.8705 133.286 17.7053 133.178 17.5785 133.007C17.5095 132.913 17.4455 132.787 17.415 132.626C17.4004 132.549 17.3987 132.353 17.3991 132.264C17.3131 131.968 17.208 131.68 17.1313 131.381C16.9485 130.67 16.5899 130.219 16.1639 129.624C15.7655 129.067 15.3376 128.717 14.7102 128.438C14.6286 128.418 13.9701 128.257 13.7375 128.164C13.3978 128.028 13.2359 127.801 13.1772 127.679C13.0773 127.471 13.0671 127.29 13.087 127.138C13.1165 126.915 13.2167 126.724 13.3945 126.57C13.5046 126.474 13.6692 126.381 13.8895 126.335C14.0597 126.3 14.5112 126.279 14.5745 126.276ZM18.4378 125.116C18.4683 125.184 18.5008 125.253 18.5353 125.322C19.2705 126.79 20.0925 127.61 21.0918 128.007L21.1253 128.02C20.4568 128.517 19.8517 129.071 19.3892 129.603C19.1988 129.822 18.9467 130.277 18.6743 130.743C18.4268 129.939 18.0221 129.37 17.5132 128.659C17.1244 128.116 16.717 127.707 16.2164 127.374C16.6049 127.174 16.9754 126.941 17.2982 126.668C17.8356 126.214 18.1909 125.688 18.4378 125.116Z" fill="#EFEFEF"/>
</svg>
