<svg width="18" height="18" viewBox="0 0 18 18" fill="none" xmlns="http://www.w3.org/2000/svg">
<path d="M4.5 3H3.75C2.92157 3 2.25 3.67157 2.25 4.5V7.125V7.125C2.25 9.40317 4.09683 11.25 6.375 11.25C8.65317 11.25 10.5 9.40317 10.5 7.125V4.5C10.5 3.67157 9.82843 3 9 3H8.25" stroke="#43B7B1" stroke-width="1.5" stroke-linecap="round" stroke-linejoin="round"/>
<path d="M6.00049 11.25C6.00049 12.8577 6.85818 14.3433 8.25049 15.1471C9.64279 15.951 11.3582 15.951 12.7505 15.1471C14.1428 14.3433 15.0005 12.8577 15.0005 11.25V9" stroke="#43B7B1" stroke-width="1.5" stroke-linecap="round" stroke-linejoin="round"/>
<path d="M8.25 2.25V3.75" stroke="#43B7B1" stroke-width="1.5" stroke-linecap="round" stroke-linejoin="round"/>
<path d="M4.49951 2.25V3.75" stroke="#43B7B1" stroke-width="1.5" stroke-linecap="round" stroke-linejoin="round"/>
<circle cx="15" cy="7.5" r="1.5" stroke="#43B7B1" stroke-width="1.5" stroke-linecap="round" stroke-linejoin="round"/>
</svg>
