<svg width="16" height="16" viewBox="0 0 16 16" fill="none" xmlns="http://www.w3.org/2000/svg">
<path d="M12.6398 7.42958C12.693 7.8125 13.0466 8.07978 13.4295 8.02656C13.8124 7.97335 14.0797 7.61979 14.0265 7.23687L12.6398 7.42958ZM2.35367 5.7307C2.205 6.08757 2.37377 6.49739 2.73064 6.64606C3.08751 6.79473 3.49734 6.62595 3.64601 6.26908L2.35367 5.7307ZM3.3665 3.33322C3.3665 2.94662 3.0531 2.63322 2.6665 2.63322C2.2799 2.63322 1.9665 2.94662 1.9665 3.33322H3.3665ZM2.6665 5.99989H1.9665C1.9665 6.38649 2.2799 6.69989 2.6665 6.69989V5.99989ZM5.33317 6.69989C5.71977 6.69989 6.03317 6.38649 6.03317 5.99989C6.03317 5.61329 5.71977 5.29989 5.33317 5.29989V6.69989ZM14.0265 7.23687C13.6479 4.51261 11.493 2.37866 8.7652 2.02668L8.58604 3.41517C10.6878 3.68637 12.3481 5.33056 12.6398 7.42958L14.0265 7.23687ZM8.7652 2.02668C6.03737 1.6747 3.41138 3.19176 2.35367 5.7307L3.64601 6.26908C4.46097 4.31286 6.48427 3.14397 8.58604 3.41517L8.7652 2.02668ZM1.9665 3.33322V5.99989H3.3665V3.33322H1.9665ZM2.6665 6.69989H5.33317V5.29989H2.6665V6.69989Z" fill="#43B7B1"/>
<path d="M3.35984 8.57039C3.30663 8.18747 2.95307 7.9202 2.57015 7.97341C2.18723 8.02663 1.91995 8.38018 1.97317 8.7631L3.35984 8.57039ZM13.646 10.2693C13.7947 9.91241 13.6259 9.50258 13.269 9.35391C12.9122 9.20524 12.5023 9.37402 12.3537 9.73089L13.646 10.2693ZM12.6332 12.6667C12.6332 13.0533 12.9466 13.3667 13.3332 13.3667C13.7198 13.3667 14.0332 13.0533 14.0332 12.6667H12.6332ZM13.3332 10.0001H14.0332C14.0332 9.61348 13.7198 9.30008 13.3332 9.30008V10.0001ZM10.6665 9.30008C10.2799 9.30008 9.9665 9.61348 9.9665 10.0001C9.9665 10.3867 10.2799 10.7001 10.6665 10.7001V9.30008ZM1.97317 8.7631C2.35176 11.4874 4.50665 13.6213 7.23448 13.9733L7.41364 12.5848C5.31187 12.3136 3.65154 10.6694 3.35984 8.57039L1.97317 8.7631ZM7.23448 13.9733C9.96231 14.3253 12.5883 12.8082 13.646 10.2693L12.3537 9.73089C11.5387 11.6871 9.51541 12.856 7.41364 12.5848L7.23448 13.9733ZM14.0332 12.6667V10.0001H12.6332V12.6667H14.0332ZM13.3332 9.30008H10.6665V10.7001H13.3332V9.30008Z" fill="#43B7B1"/>
</svg>
