<svg width="24" height="24" viewBox="0 0 24 24" fill="none" xmlns="http://www.w3.org/2000/svg">
<path d="M9 17V18C9 19.6569 10.3431 21 12 21C13.6569 21 15 19.6569 15 18V17" stroke="#181919" stroke-width="1.8" stroke-linecap="round" stroke-linejoin="round"/>
<path fill-rule="evenodd" clip-rule="evenodd" d="M14.038 2.93688C13.5142 2.41944 12.7944 2.1 12 2.1C10.5966 2.1 9.42603 3.09688 9.15777 4.42115C6.77507 5.74335 5.22989 8.21162 5.10099 10.9578C5.10033 10.9719 5.1 10.9859 5.1 11V13.9423C4.96833 14.8986 4.39822 15.7402 3.55652 16.2168C3.20084 16.4183 3.02556 16.8341 3.1297 17.2293C3.23384 17.6246 3.59126 17.9 4 17.9H20C20.4087 17.9 20.7662 17.6246 20.8703 17.2293C20.9744 16.8341 20.7991 16.4183 20.4435 16.2168C19.6018 15.7402 19.0317 14.8986 18.9 13.9423V11C18.9 10.9859 18.8997 10.9719 18.899 10.9578C18.8985 10.9477 18.898 10.9375 18.8975 10.9274C18.6063 10.9801 18.3064 11.0076 18 11.0076C17.6908 11.0076 17.3881 10.9796 17.0944 10.9259C17.0965 10.9578 17.0984 10.9898 17.1 11.0218V14C17.1 14.0361 17.1022 14.0723 17.1065 14.1082C17.1933 14.8249 17.4356 15.5027 17.8057 16.1H6.19433C6.56442 15.5027 6.80672 14.8249 6.89348 14.1082C6.89782 14.0723 6.9 14.0361 6.9 14V11.0218C7.01254 8.78302 8.34416 6.78611 10.3678 5.82165C10.4108 5.80238 10.452 5.77984 10.4911 5.75435C10.602 5.68231 10.6928 5.58859 10.7604 5.48158C10.8537 5.334 10.9029 5.16116 10.9001 4.98514C10.908 4.38448 11.3974 3.9 12 3.9C12.5957 3.9 13.0808 4.37351 13.0994 4.96468C13.2575 4.21287 13.5841 3.52313 14.038 2.93688Z" fill="#181919"/>
<path d="M21 6C21 7.65685 19.6569 9 18 9C16.3431 9 15 7.65685 15 6C15 4.34315 16.3431 3 18 3C19.6569 3 21 4.34315 21 6Z" fill="#FF4C4C"/>
</svg>
