<svg width="161" height="160" viewBox="0 0 161 160" fill="none" xmlns="http://www.w3.org/2000/svg">
<g clip-path="url(#clip0_1506_62342)">
<path d="M80.511 131C108.972 131 132.044 107.928 132.044 79.4666C132.044 51.0054 108.972 27.9331 80.511 27.9331C52.0498 27.9331 28.9775 51.0054 28.9775 79.4666C28.9775 107.928 52.0498 131 80.511 131Z" fill="#EFEFEF"/>
<g filter="url(#filter0_d_1506_62342)">
<rect x="54.3149" y="42.7732" width="53.4819" height="66.5764" rx="16" fill="url(#paint0_linear_1506_62342)"/>
</g>
<rect x="59.0386" y="51.3623" width="42" height="1" rx="0.5" fill="#43B7B1"/>
<rect x="59.0386" y="70.3623" width="42.9445" height="1" rx="0.5" fill="#EFEFEF"/>
<rect x="59.0386" y="89.3623" width="42.9445" height="1" rx="0.5" fill="#EFEFEF"/>
<rect x="59.0386" y="108.362" width="42.9445" height="1" rx="0.5" fill="#EFEFEF"/>
<rect x="59.0386" y="127.362" width="42.9445" height="1" rx="0.5" fill="#EFEFEF"/>
<g filter="url(#filter1_d_1506_62342)">
<path d="M139.839 35.4158H114.038C112.836 35.4158 111.861 36.4415 111.861 37.7068V50.4696C111.861 51.7349 112.836 52.7606 114.038 52.7606H139.839C141.041 52.7606 142.016 51.7349 142.016 50.4696V37.7068C142.016 36.4415 141.041 35.4158 139.839 35.4158Z" fill="white"/>
</g>
<path d="M118.302 46.8286C119.725 46.8286 120.879 45.675 120.879 44.252C120.879 42.8289 119.725 41.6753 118.302 41.6753C116.879 41.6753 115.726 42.8289 115.726 44.252C115.726 45.675 116.879 46.8286 118.302 46.8286Z" fill="#EFEFEF"/>
<rect x="124.314" y="41.6753" width="13.7423" height="5.15334" rx="2.57667" fill="#EFEFEF"/>
<path opacity="0.6" fill-rule="evenodd" clip-rule="evenodd" d="M95.5889 112.346C101.12 112.346 106.261 110.673 110.532 107.805L128.01 124.49L134.349 117.136L117.483 101.036C120.598 96.6521 122.429 91.2929 122.429 85.5059C122.429 70.6824 110.412 58.6655 95.5889 58.6655C80.7654 58.6655 68.7485 70.6824 68.7485 85.5059C68.7485 100.329 80.7654 112.346 95.5889 112.346ZM118.482 85.506C118.482 98.0557 108.309 108.229 95.759 108.229C83.2093 108.229 73.0357 98.0557 73.0357 85.506C73.0357 72.9562 83.2093 62.7826 95.759 62.7826C108.309 62.7826 118.482 72.9562 118.482 85.506Z" fill="#43B7B1"/>
<g filter="url(#filter2_b_1506_62342)">
<path d="M95.7568 108.669C108.683 108.669 119.162 98.2861 119.162 85.4786C119.162 72.6711 108.683 62.2886 95.7568 62.2886C82.8307 62.2886 72.3521 72.6711 72.3521 85.4786C72.3521 98.2861 82.8307 108.669 95.7568 108.669Z" fill="white" fill-opacity="0.3"/>
</g>
<path opacity="0.6" d="M99.8038 85.4788L105.468 79.8368C105.998 79.2786 106.289 78.5368 106.278 77.769C106.267 77.0012 105.955 76.2679 105.409 75.7249C104.863 75.1819 104.125 74.872 103.352 74.8611C102.58 74.8503 101.834 75.1392 101.272 75.6666L95.5954 81.3086L89.9315 75.6666C89.6589 75.3799 89.3313 75.1505 88.968 74.9918C88.6047 74.8332 88.213 74.7486 87.8162 74.743C87.4194 74.7374 87.0255 74.8109 86.6578 74.9593C86.2901 75.1077 85.9561 75.3278 85.6755 75.6067C85.3949 75.8856 85.1734 76.2176 85.0241 76.5831C84.8748 76.9485 84.8008 77.34 84.8065 77.7344C84.8121 78.1288 84.8972 78.5181 85.0568 78.8792C85.2165 79.2403 85.4473 79.5659 85.7358 79.8368L91.4092 85.4788L85.7358 91.1208C85.4473 91.3917 85.2165 91.7173 85.0568 92.0784C84.8972 92.4396 84.8121 92.8288 84.8065 93.2232C84.8008 93.6176 84.8748 94.0091 85.0241 94.3746C85.1734 94.74 85.3949 95.072 85.6755 95.3509C85.9561 95.6298 86.2901 95.85 86.6578 95.9983C87.0255 96.1467 87.4194 96.2202 87.8162 96.2146C88.213 96.2091 88.6047 96.1244 88.968 95.9658C89.3313 95.8071 89.6589 95.5777 89.9315 95.291L95.6081 89.649L101.285 95.291C101.852 95.7873 102.588 96.05 103.343 96.0257C104.098 96.0014 104.815 95.6918 105.348 95.1601C105.882 94.6284 106.191 93.9145 106.213 93.164C106.235 92.4134 105.969 91.6828 105.468 91.1208L99.8038 85.4788Z" fill="#181919"/>
<path d="M128.009 124.491L134.347 117.136L135.302 118.048C136.229 118.932 136.783 120.167 136.844 121.482C136.905 122.797 136.467 124.083 135.627 125.058C134.787 126.033 133.613 126.616 132.364 126.68C131.114 126.744 129.892 126.284 128.966 125.399L128.011 124.488L128.009 124.491Z" fill="#EFEFEF"/>
<path fill-rule="evenodd" clip-rule="evenodd" d="M40.2784 54.6323C40.2704 54.0199 40.1935 53.4022 40.0399 52.7803C39.5011 50.5979 37.0971 49.1967 34.5385 48.8673C31.9808 48.5379 29.3211 49.2875 28.296 51.186C27.7097 52.2714 27.6288 53.2069 27.8684 53.9956C28.107 54.7802 28.673 55.4306 29.4413 55.9374C31.5835 57.3491 35.3351 57.6373 37.0466 57.0471C37.8381 56.7736 38.6114 56.4442 39.3646 56.0673C38.9339 58.5348 37.3296 60.8725 35.1884 62.979C30.5352 67.5572 23.3142 71.032 19.3817 72.3096C19.1704 72.3783 19.0531 72.6127 19.1188 72.8333C19.1845 73.054 19.409 73.1776 19.6202 73.1089C23.6306 71.806 30.9921 68.2572 35.7374 63.5882C38.1889 61.1766 39.9357 58.462 40.234 55.608C45.7758 52.5153 50.327 46.9045 54.2181 42.1826C54.3626 42.0084 54.3434 41.7434 54.1756 41.5924C54.0078 41.4425 53.755 41.4615 53.6105 41.6367C49.8781 46.1653 45.5464 51.5524 40.2784 54.6323ZM39.4728 55.0811C39.5031 54.3927 39.4384 53.6937 39.2635 52.9883C38.7974 51.0994 36.6553 49.9823 34.4404 49.6972C33.0827 49.523 31.6866 49.6666 30.5918 50.1776C29.9034 50.4986 29.3362 50.9643 28.9945 51.5978C28.5457 52.4287 28.4486 53.1393 28.6326 53.7422C28.8166 54.3494 29.2736 54.8372 29.869 55.2289C31.8211 56.516 35.237 56.7895 36.7948 56.252C37.7137 55.9353 38.6054 55.5404 39.4728 55.0811Z" fill="#181919"/>
<circle opacity="0.6" cx="138.487" cy="94.4971" r="2.57667" fill="#43B7B1"/>
<path opacity="0.6" fill-rule="evenodd" clip-rule="evenodd" d="M41.1672 112.274C41.6271 112.101 42.111 111.872 42.4841 111.54C42.9273 111.146 43.1076 110.639 43.2286 110.104C43.384 109.418 43.4461 108.687 43.6345 107.999C43.7043 107.744 43.8385 107.647 43.8961 107.604C44.0418 107.496 44.189 107.467 44.3274 107.478C44.4915 107.491 44.717 107.556 44.8652 107.846C44.8864 107.887 44.9139 107.95 44.9324 108.037C44.9458 108.1 44.9546 108.298 44.9688 108.38C45.0045 108.582 45.0344 108.783 45.0624 108.985C45.1557 109.659 45.2093 110.232 45.504 110.851C45.9038 111.691 46.3045 112.205 46.8478 112.433C47.3732 112.653 48.0014 112.612 48.804 112.439C48.8804 112.42 48.9559 112.403 49.0307 112.39C49.3846 112.324 49.7229 112.569 49.7924 112.94C49.8619 113.311 49.637 113.672 49.2863 113.753C49.2131 113.77 49.1409 113.787 49.0696 113.801C47.985 114.084 46.7294 115.092 45.9998 115.975C45.7749 116.248 45.4456 117.009 45.1097 117.494C44.8618 117.853 44.5833 118.089 44.3494 118.172C44.1927 118.228 44.0605 118.22 43.9514 118.191C43.7928 118.15 43.6612 118.06 43.5603 117.916C43.5053 117.837 43.4543 117.732 43.43 117.597C43.4183 117.533 43.417 117.368 43.4173 117.293C43.3488 117.046 43.2651 116.804 43.204 116.554C43.0584 115.957 42.7727 115.579 42.4334 115.08C42.116 114.613 41.7751 114.32 41.2753 114.086C41.2103 114.069 40.6857 113.934 40.5005 113.856C40.2299 113.743 40.1009 113.552 40.0541 113.449C39.9746 113.275 39.9664 113.123 39.9822 112.996C40.0058 112.809 40.0856 112.649 40.2272 112.52C40.315 112.439 40.446 112.361 40.6215 112.323C40.7571 112.293 41.1168 112.276 41.1672 112.274ZM44.2447 111.301C44.269 111.358 44.2949 111.416 44.3224 111.473C44.908 112.704 45.5629 113.392 46.3589 113.725L46.3856 113.736C45.8531 114.152 45.371 114.617 45.0026 115.063C44.851 115.246 44.6501 115.628 44.4331 116.019C44.236 115.344 43.9136 114.868 43.5082 114.271C43.1985 113.816 42.8739 113.473 42.4751 113.194C42.7846 113.027 43.0798 112.831 43.3369 112.602C43.7651 112.222 44.0481 111.78 44.2447 111.301Z" fill="#43B7B1"/>
</g>
<defs>
<filter id="filter0_d_1506_62342" x="24.3149" y="32.7732" width="113.482" height="126.576" filterUnits="userSpaceOnUse" color-interpolation-filters="sRGB">
<feFlood flood-opacity="0" result="BackgroundImageFix"/>
<feColorMatrix in="SourceAlpha" type="matrix" values="0 0 0 0 0 0 0 0 0 0 0 0 0 0 0 0 0 0 127 0" result="hardAlpha"/>
<feOffset dy="20"/>
<feGaussianBlur stdDeviation="15"/>
<feComposite in2="hardAlpha" operator="out"/>
<feColorMatrix type="matrix" values="0 0 0 0 0.570833 0 0 0 0 0.570833 0 0 0 0 0.570833 0 0 0 0.19 0"/>
<feBlend mode="normal" in2="BackgroundImageFix" result="effect1_dropShadow_1506_62342"/>
<feBlend mode="normal" in="SourceGraphic" in2="effect1_dropShadow_1506_62342" result="shape"/>
</filter>
<filter id="filter1_d_1506_62342" x="104.861" y="26.4158" width="56.1553" height="43.3447" filterUnits="userSpaceOnUse" color-interpolation-filters="sRGB">
<feFlood flood-opacity="0" result="BackgroundImageFix"/>
<feColorMatrix in="SourceAlpha" type="matrix" values="0 0 0 0 0 0 0 0 0 0 0 0 0 0 0 0 0 0 127 0" result="hardAlpha"/>
<feOffset dx="6" dy="4"/>
<feGaussianBlur stdDeviation="6.5"/>
<feComposite in2="hardAlpha" operator="out"/>
<feColorMatrix type="matrix" values="0 0 0 0 0.104618 0 0 0 0 0.465612 0 0 0 0 0.545833 0 0 0 0.09 0"/>
<feBlend mode="normal" in2="BackgroundImageFix" result="effect1_dropShadow_1506_62342"/>
<feBlend mode="normal" in="SourceGraphic" in2="effect1_dropShadow_1506_62342" result="shape"/>
</filter>
<filter id="filter2_b_1506_62342" x="64.3521" y="54.2886" width="62.8096" height="62.3801" filterUnits="userSpaceOnUse" color-interpolation-filters="sRGB">
<feFlood flood-opacity="0" result="BackgroundImageFix"/>
<feGaussianBlur in="BackgroundImage" stdDeviation="4"/>
<feComposite in2="SourceAlpha" operator="in" result="effect1_backgroundBlur_1506_62342"/>
<feBlend mode="normal" in="SourceGraphic" in2="effect1_backgroundBlur_1506_62342" result="shape"/>
</filter>
<linearGradient id="paint0_linear_1506_62342" x1="81.0559" y1="42.7732" x2="81.0559" y2="109.35" gradientUnits="userSpaceOnUse">
<stop stop-color="white"/>
<stop offset="0.71875" stop-color="#FAFAFA"/>
</linearGradient>
<clipPath id="clip0_1506_62342">
<rect width="160" height="160" fill="white" transform="translate(0.5)"/>
</clipPath>
</defs>
</svg>
