<svg width="152" height="152" viewBox="0 0 152 152" fill="none" xmlns="http://www.w3.org/2000/svg">
<g opacity="0.634797">
<path d="M75.9861 11.0962C111.833 11.0962 140.894 40.1565 140.894 76.0039C140.894 111.852 111.833 140.912 75.9861 140.912C40.1387 140.912 11.0784 111.852 11.0784 76.0039C11.0784 40.1565 40.1387 11.0962 75.9861 11.0962Z" fill="#F3FFFB"/>
</g>
<g opacity="0.949226">
<path d="M76 1C117.421 1 151 34.5785 151 76C151 117.422 117.421 151 76 151C34.5785 151 1 117.422 1 76C1 34.5785 34.5785 1 76 1Z" stroke="#F0FCF8" stroke-width="1.7957" stroke-miterlimit="10"/>
</g>
<path d="M76.1421 33.4189C99.62 33.4189 118.682 52.4811 118.682 75.959C118.682 99.4369 99.62 118.499 76.1421 118.499C52.6643 118.499 33.6021 99.4369 33.6021 75.959C33.6021 52.4811 52.6643 33.4189 76.1421 33.4189Z" fill="#43B7B1"/>
<path d="M76.1421 33.4189C99.62 33.4189 118.682 52.4811 118.682 75.959C118.682 99.4369 99.62 118.499 76.1421 118.499C52.6643 118.499 33.6021 99.4369 33.6021 75.959C33.6021 52.4811 52.6643 33.4189 76.1421 33.4189Z" stroke="#43B7B1" stroke-width="12.4222" stroke-linecap="round" stroke-linejoin="round"/>
<path d="M95.9937 62.3569L68.2686 90.082L53.9661 75.7795" stroke="white" stroke-width="8" stroke-linecap="round" stroke-linejoin="round"/>
</svg>
