<svg width="279" height="46" viewBox="0 0 279 46" fill="none" xmlns="http://www.w3.org/2000/svg">
<path d="M262.581 23.0376L267.296 33.2943H257.928L262.581 23.0376ZM272.362 44.8332H279L264.173 13.8148H261.051L246.265 44.8332H252.903L255.674 38.5468H269.529L272.362 44.8332ZM231.707 39.2292C226.289 39.2292 221.844 35.1761 221.844 29.324C221.844 23.3891 226.289 19.4188 231.707 19.4188C234.954 19.4188 237.87 21.0111 239.627 23.5132L244.508 19.3774C241.468 15.7793 236.898 13.4426 231.707 13.4426C222.691 13.4426 215.33 20.5768 215.33 29.324C215.33 38.0712 222.671 45.164 231.707 45.164C236.898 45.164 241.468 42.8687 244.508 39.2705L239.627 35.1348C237.87 37.6576 234.954 39.2292 231.707 39.2292ZM210.057 13.8148H203.729V44.8332H210.057V13.8148ZM194.072 13.8148L181.23 31.5987L168.388 13.8148H165.307V44.8332H171.594V27.6697L181.23 41.1316L190.825 27.6697V44.8332H197.153V13.8148H194.072ZM143.574 39.2912C138.032 39.2912 133.545 34.8453 133.545 29.3447C133.545 23.8854 138.032 19.3981 143.574 19.3981C149.116 19.3981 153.644 23.8854 153.644 29.3447C153.644 34.8453 149.116 39.2912 143.574 39.2912ZM143.574 13.5046C134.475 13.5046 127.072 20.5975 127.072 29.3447C127.072 38.0918 134.454 45.1847 143.574 45.1847C152.735 45.1847 160.076 38.0918 160.076 29.3447C160.076 20.5975 152.714 13.5046 143.574 13.5046ZM125.045 13.8148H98.9487V19.274H108.813V44.8332H115.14V19.2533H125.045V13.8148ZM84.4321 23.0376L89.1469 33.2943H79.7793L84.4321 23.0376ZM94.2132 44.8332H100.851L86.0243 13.8148H82.9018L68.1164 44.8332H74.7543L77.5253 38.5468H91.3802L94.2132 44.8332ZM58.0251 13.8148V33.3564L39.5381 13.8148H36.4569V44.8332H42.7433V25.2916L61.2717 44.8332H64.3528V13.8148H58.0251ZM16.3157 23.0376L21.0305 33.2943H11.6629L16.3157 23.0376ZM26.0968 44.8332H32.7347L17.9079 13.8148H14.7854L0 44.8332H6.63794L9.40891 38.5468H23.2638L26.0968 44.8332Z" fill="#181919"/>
<path fill-rule="evenodd" clip-rule="evenodd" d="M261.196 10.0305L262.126 1.03519L267.358 1.71759C267.089 2.48271 264.422 10.1959 264.401 10.2166L261.196 10.0305Z" fill="#181919"/>
</svg>
