<svg width="24" height="24" viewBox="0 0 24 24" fill="none" xmlns="http://www.w3.org/2000/svg">
<path fill-rule="evenodd" clip-rule="evenodd" d="M16.7266 7.86647C15.864 7.00418 15.6059 5.70718 16.0725 4.58034C16.5392 3.4535 17.6387 2.71875 18.8584 2.71875C20.078 2.71875 21.1775 3.4535 21.6442 4.58034C22.1108 5.70718 21.8527 7.00418 20.9902 7.86647L18.8584 9.99903L16.7266 7.86647V7.86647Z" stroke="#43B7B1" stroke-width="1.6" stroke-linecap="round" stroke-linejoin="round"/>
<path d="M18.8583 5.73471V5.74225" stroke="#43B7B1" stroke-width="1.6" stroke-linecap="round" stroke-linejoin="round"/>
<path fill-rule="evenodd" clip-rule="evenodd" d="M2.72566 18.8289C1.58141 17.685 1.23897 15.9644 1.85802 14.4695C2.47707 12.9747 3.9357 12 5.55365 12C7.17161 12 8.63024 12.9747 9.24929 14.4695C9.86834 15.9644 9.5259 17.685 8.38165 18.8289L5.55365 21.6579L2.72566 18.8289Z" stroke="#43B7B1" stroke-width="1.6" stroke-linecap="round" stroke-linejoin="round"/>
<path d="M5.55365 16.0009V16.0109" stroke="#43B7B1" stroke-width="2" stroke-linecap="round" stroke-linejoin="round"/>
<path d="M18.839 12.7764C16.2218 12.3057 11.6826 13.4486 14.1555 17.1843C15.774 19.6294 20.5609 22.6943 8.2667 22.6943" stroke="#43B7B1" stroke-width="1.6" stroke-linecap="round" stroke-dasharray="2 2"/>
</svg>
