<svg width="14" height="15" viewBox="0 0 14 15" fill="none" xmlns="http://www.w3.org/2000/svg">
<path d="M7.38825 1.47423C7.31455 1.32489 7.16246 1.23035 6.99593 1.23035C6.82939 1.23035 6.6773 1.32489 6.6036 1.47423L4.90527 4.91546L1.10801 5.46579C0.943116 5.48968 0.806111 5.60517 0.75465 5.76364C0.703188 5.9221 0.746205 6.09605 0.865597 6.21226L3.6173 8.89077L2.96847 12.6731C2.94032 12.8373 3.00779 13.0032 3.14252 13.101C3.27725 13.1989 3.45587 13.2118 3.60327 13.1343L6.99978 11.3486L10.3882 13.1341C10.5356 13.2118 10.7143 13.199 10.8492 13.1012C10.984 13.0033 11.0515 12.8373 11.0234 12.6731L10.3745 8.89077L13.1263 6.21226C13.2456 6.09605 13.2887 5.9221 13.2372 5.76364C13.1857 5.60517 13.0487 5.48968 12.8838 5.46579L9.08658 4.91546L7.38825 1.47423Z" fill="#43B7B1"/>
</svg>
